<?xml version="1.0" encoding="utf-8"?>
<!-- Generator: Adobe Illustrator 22.1.0, SVG Export Plug-In . SVG Version: 6.00 Build 0)  -->
<svg version="1.1" id="Layer_1" xmlns="http://www.w3.org/2000/svg" xmlns:xlink="http://www.w3.org/1999/xlink" x="0px" y="0px"
	 viewBox="0 0 60.7 60.9" style="enable-background:new 0 0 60.7 60.9;" xml:space="preserve">
<style type="text/css">
	.st0{fill:#FEFEFE;}
	.st1{fill:#FDFDFD;}
	.st2{fill:#010101;}
</style>
<g>
	<path d="M27.1,0.1c2,0,3.8-0.1,5.8-0.1c1.6,0.5,3.4,0.6,5,1.1c12,3.1,20.8,13,22.5,25.2c2.2,15.6-7.7,30.1-23,33.8
		c-17.2,4.2-34.5-7.5-37.1-25C-2,19.1,8,4.4,23.8,0.8C24.9,0.5,26.1,0.6,27.1,0.1z"/>
	<path class="st0" d="M28.2,12.9c6.8,0,12.1,5.4,11.9,12c-0.1,2.2-1,4.3-1.7,6.4c-0.7,1.9-1.3,3.8-1.3,5.8c0,0.6,0.1,1.1,0.7,1.5
		c0.8,0.6,0.8,1.5-0.2,1.9c-2.6,1-5.3,1.9-8,2.6c-0.9,0.2-1.5-0.5-1.2-1.4c0.2-0.6,0-1.1-0.3-1.6c-1.2-1.5-2.6-2.6-4.1-3.6
		c-2-1.3-4-2.6-5.5-4.5c-5.2-6.3-1.6-16.5,6.5-18.6C26.1,13.1,27.2,12.9,28.2,12.9z"/>
	<path class="st1" d="M31,45.7c-0.6,0-1-0.1-1.1-0.6c-0.2-0.5,0-0.8,0.4-1.1c0.2-0.1,0.3-0.2,0.5-0.3c2.1-0.7,4.2-1.5,6.4-2.1
		c0.6-0.1,1.3-0.2,1.5,0.6c0.3,0.8-0.3,1.2-0.9,1.4c-2,0.7-4,1.3-6,2C31.5,45.6,31.2,45.6,31,45.7z"/>
	<path class="st1" d="M38.3,44.2c0.6,0,1.1,0,1.2,0.7c0.1,0.6-0.2,1-0.7,1.2c-2.1,0.7-4.3,1.5-6.4,2.2c-0.3,0.1-0.7,0-1,0
		c-0.4,0-0.6-0.2-0.8-0.6c-0.1-0.3-0.1-0.7,0.2-0.9c0.3-0.2,0.5-0.4,0.8-0.6c2-0.7,4-1.3,6-2C37.9,44.2,38.2,44.3,38.3,44.2z"/>
	<path class="st1" d="M34,50.3c-0.5,0-0.9-0.2-1-0.6c-0.2-0.5,0.1-0.9,0.5-1.2c1.4-0.6,2.8-1.1,4.3-1.4c0.4-0.1,0.9,0,1.1,0.5
		c0.2,0.5,0.1,1-0.4,1.2C37,49.6,35.5,50,34,50.3z"/>
	<path class="st2" d="M32.5,28.8c-0.1,0.6-0.5,1.2-0.9,1.8C31,31.4,31,32.2,31.4,33c0.3,0.7,0.5,1.4,0.8,2.1
		c0.2,0.5,0.1,0.9-0.4,1.1c-0.6,0.2-0.8-0.3-0.9-0.7c-0.3-0.8-0.6-1.7-0.8-2.6c-0.2-0.7-0.5-1.1-1.2-1.3c-0.6-0.3-1.3-0.6-1.9-1
		c-0.3-0.2-0.6-0.5-0.3-0.9c0.2-0.4,0.6-0.6,1-0.4c0.7,0.3,1.6,1.1,2.2,0.9c0.5-0.1,0.6-1.4,1.1-2c0.2-0.3,0.5-0.5,0.9-0.3
		C32.4,28.1,32.5,28.3,32.5,28.8z"/>
</g>
</svg>
