<svg id="Layer_1" data-name="Layer 1" xmlns="http://www.w3.org/2000/svg" viewBox="0 0 100 100"><defs><style>.cls-1{fill:#fff;fill-rule:evenodd;}</style></defs><title>logo</title><rect width="100" height="100" rx="50" ry="50"/><path class="cls-1" d="M55.9,77.2H47.06s-6.81-.07-6.81-4.09V71c-4.89-.37-7.88-2.13-12.75-2.52V16.05c.43,0,7.53-.08,7.53,4.81V30.91a19.46,19.46,0,0,1-.64,5.39s1.71-2,5.86-2.93V26.43H55.9c10.42,0,17.88,3.16,17.88,12.56v2c0,4.67-2.37,8.83-5.81,10.48,3.88,1.72,6.53,6,6.53,10.85v1.94c0,9-7.53,12.92-18.6,12.92Zm2.19-22.64v4.58c0,6-3.47,9.94-10,11.34v.7H55.9c7.55,0,10.78-2.23,10.78-8,0-5.09-2.62-8.18-8.59-8.64ZM40.25,62.83V39.22c-2.92,1-5.22,3.13-5.22,5.91V63.88a12.72,12.72,0,0,0,5.22,1.37v0c.7,0,5.92-.15,7.82-1.19h0l.11-.08a2.25,2.25,0,0,0,.84-.72c1.12-1.19,1.54-2.92,1.54-5.19V54.5H49.27v-6h1.29V45.85c0-2.86-1-4.78-2.49-5.92v8.55h0v6h0v7.67l-7.82.66ZM55.9,32.45H48.07v.83c5.66,1.19,10,5.31,10,11.49v3.65C63.9,48,66,45.08,66,39.93c0-5.75-3.23-7.48-10.06-7.48Z" transform="translate(0 0)"/></svg>