<svg id="Layer_1" data-name="Layer 1" xmlns="http://www.w3.org/2000/svg" viewBox="0 0 200 200"><defs><style>.cls-1{fill:#b98882;}.cls-2{fill:#d5bdba;}.cls-3{fill:#c2938d;}.cls-4{fill:#cb9c97;}.cls-5{fill:#e8d8d7;}.cls-6{fill:#fefefe;}.cls-7{fill:#403a3a;}.cls-8{fill:#221917;}.cls-9{fill:#312423;}.cls-10{fill:#ce9f9a;}.cls-11{fill:#010101;}.cls-12{fill:#a16b5e;}.cls-13{fill:#aa7266;}.cls-14{fill:#b07b71;}.cls-15{fill:#b68680;}.cls-16{fill:#b78781;}</style></defs><title>rea</title><path class="cls-1" d="M90.22,175.23H87.7c-.09-.77-.82-.78-1.31-1-1.17-.66-2.13-3-1.61-4.23a1.29,1.29,0,0,0-.16-1.35c-.27-.42-.71-.76-.61-1.39a9.35,9.35,0,0,0-2-7.81c-1.2-1.42-3.07-1.9-4.58-2.9a15.42,15.42,0,0,0-2.27-2.44,3.19,3.19,0,0,1-1.1-2.18,1.73,1.73,0,0,1,1.89-.84l.21.63v1.05c.06.3-.13.92.38.76.8-.26,1.21.14,1.74.56a1.34,1.34,0,0,0,1.41.09c.91-.57,1.75-1.18,2.83-.4a.21.21,0,0,0,.19,0C83,153,84.12,153,84.16,152c0-.63.53-.94,1.19-.89a2.78,2.78,0,0,0,2.13-2,.57.57,0,0,0-.2-.56,4.9,4.9,0,0,1-1.56-2.65,8.84,8.84,0,0,0-3-4.74,1.14,1.14,0,0,1,.12-.9c.61.41,1,1.15,1.77,1.3a4,4,0,0,1,.85,1.26c-.24.15-.13.31-.07.52.36,1.41,1.38,2.45,1.94,3.74a4.4,4.4,0,0,0,1.22,1.38,1.64,1.64,0,0,0,2.35-.17L93,149c-.45,1.16.55,1.34,1.2,1.65,1.25.58,2.65.5,4,.83a3.18,3.18,0,0,0,1.44.21,16.15,16.15,0,0,1,3.87.13,5.82,5.82,0,0,0,3.52-.58,9.72,9.72,0,0,1,3.67-1c0,.46-.42.35-.68.48-.47.22-1.35.05-1.27.79,0,.51.84.46,1.32.62a.72.72,0,0,0,.21,0h.85c0,.14,0,.32,0,.41.62.83.3,1.46-.23,2.23a24.67,24.67,0,0,0-3,5.84c-.34,1-.1,1.27,1,1.06.41-.08.78-.2,1,.37.55,1.29.64,1.29,2,.63.15-.07.36-.2.48-.15.92.35,1.51-.28,2.2-.66.87-.47,1.49-1.25,2.32-1.76s1.15-.52,1.33.61c.12.72.34,1.05,1,.48a9.45,9.45,0,0,1,1-.7c.32-.19.65-.29.86.17.39.82,1,.76,1.77.54s1.38-1,2.24-1.29a8.86,8.86,0,0,1-4.12,4.27.93.93,0,0,1-1-.08,1.19,1.19,0,0,0-1.28,0c-1.16.75-1.39.69-2-.5-.12-.22-.19-.46-.48-.49s-.45.3-.54.54c-.28.79-.51,1.59-.79,2.38a.63.63,0,0,1-.87.48,3.72,3.72,0,0,0-3.08.89,8.29,8.29,0,0,1-2.89,1.37,5.89,5.89,0,0,0-2.84,1.87c-.5.5.06,1-.09,1.48-1.68,2.15-2.92,2.46-5.27,1.13a11,11,0,0,0-4.12-1.48,1.11,1.11,0,0,1-1.12-.84c-.15-.51-.52-.52-1-.33a4.11,4.11,0,0,0-1.86,1.63C91.14,173.12,90.16,173.92,90.22,175.23Z"/><path class="cls-2" d="M113.16,22.46c.73,1,.75,2.4,2,3.06a1.67,1.67,0,0,1,.86,2c0,.21-.29.47.06.63a.71.71,0,0,0,.7-.1,3,3,0,0,0,.74-.58,3.76,3.76,0,0,1,2.19-1.13,1.41,1.41,0,0,1,1.85,1c.24.71.59.71,1.18.49a11.37,11.37,0,0,1,2.84-.71,2.37,2.37,0,0,0,1.42-.59,2.67,2.67,0,0,1,2.27-.58,1.14,1.14,0,0,1,.56.22,3.24,3.24,0,0,1-.57,5c-.28.14-.76.08-.77.58,0,.23.17.37.38.44.44.16.73-.09,1-.38.1-.11.2-.2.3-.3,1.54-1.52,2.49-1.3,3.32.72.45,1.07.73,2.22,1.8,3a1.1,1.1,0,0,1-.18,1.93c-1,.65-1.06,1.52-.86,2.69.67-.63,1.29-1.11,2.18-.68a5.56,5.56,0,0,1,1.65,1.59,5.71,5.71,0,0,1,1.3,4.68c-.07.62.63,1.12.19,1.76l-.26.06a.07.07,0,0,0-.06-.1,1.12,1.12,0,0,0-.24-.83l-.22-2.32c0-.41.15-.84-.24-1.17a2.34,2.34,0,0,0-1.3-1.73c.05-.21-.1-.27-.26-.32a.69.69,0,0,0-.33-.59.91.91,0,0,0-1.49-.12c-1.4.61-1.42.52-1.49-.93a4.46,4.46,0,0,1,1-2.67c.52-.55.07-.78-.34-1-.81-.81-.76-2-1.22-3-.32-.68-.65-1.31-1.45-1.28a1.53,1.53,0,0,0-1.45,1.28l0,.07a1.77,1.77,0,0,1-1.33.38c-.33-.39-.87-.42-1.25-.73-.16-.43-.21-.75.39-.92a4,4,0,0,0,1.46-.79c1.12-1,1-1.91.31-3.32a1.41,1.41,0,0,0-2.1-.49,8.45,8.45,0,0,1-3.26,1,5,5,0,0,0-2.23.79l-.91.1,0-.31c-.29-1.53-1.2-1.89-2.46-1l-.23.19c-.65.14-.83.82-1.32,1.17-.44.09-.94-.1-1.35.2l-1.06-.06v-.56c1-1.14.86-1.78-.75-2.73l-.22-.25c-.07-.27,0-.57-.36-.72l-.11-.32c0-.58-.42-.76-.84-.94l-.12-.39.28-.32Z"/><path class="cls-3" d="M77.39,156.5c1.51,1,3.38,1.48,4.58,2.9a9.35,9.35,0,0,1,2,7.81c-.1.63.34,1,.61,1.39a1.29,1.29,0,0,1,.16,1.35c-.52,1.24.44,3.57,1.61,4.23.49.27,1.22.28,1.31,1H85.38c-.07-.11-.14-.12-.21,0H85c-.08-.47-.44-.75-.72-1.11a2.88,2.88,0,0,1-.82-2.33c.1-.74.53-1.55.32-2.21-.31-1-.16-2-.45-3,.39-1.13-.54-2.86-1.91-3.58-.35-.2-.3-.82-.84-.83a1,1,0,0,1,.38-.71,1.09,1.09,0,0,0-.13-1.5c-.37-.43-.56-1.38-1.51-1v-.42l0-.09,0,.09c-.46.14-.65-.4-1-.42,0-.68-.76-.86-.86-1.46Z"/><path class="cls-4" d="M90.22,175.23c-.06-1.31.92-2.11,1.57-3a4.11,4.11,0,0,1,1.86-1.63c.49-.19.86-.18,1,.33a1.11,1.11,0,0,0,1.12.84,11,11,0,0,1,4.12,1.48c2.35,1.33,3.59,1,5.27-1.13l.41-.21v.21c0,.42-.48.63-.41,1.06l0,.19c-.42,0-.42.34-.4.65h0c-.47,0-.94,0-1.06.62-.15.22-.39.21-.61.25l-.44-.06c-1.09-.4-2.42-.25-3.32-1a3,3,0,0,0-2.82-.55,1.23,1.23,0,0,1-.89-.2,1.19,1.19,0,0,0-1.61.27,4.88,4.88,0,0,1-1.47,1,2.72,2.72,0,0,0-1.25.94Z"/><path class="cls-5" d="M82.44,175.23c-.19-.35,0-1.33-.87-.54a3.12,3.12,0,0,1-.38-2.53c.2-1.54.66-3.07.22-4.65a1.27,1.27,0,0,1,.1-.71,1.33,1.33,0,0,0-.64-1.72,2.52,2.52,0,0,1-1.39-2.67l.07-.07.35.08a1.19,1.19,0,0,0,.77,1.39A2.83,2.83,0,0,1,82,165.29c.39,1.68,1.6,3.44.11,5.19a.8.8,0,0,0-.09.7c.71,1.32.63,3,1.88,4Z"/><path class="cls-2" d="M83.91,175.23c-1.25-1-1.17-2.73-1.88-4a.8.8,0,0,1,.09-.7c1.49-1.75.28-3.51-.11-5.19a2.83,2.83,0,0,0-1.34-1.48,1.19,1.19,0,0,1-.77-1.39l.64-.22c.54,0,.49.63.84.83a1.88,1.88,0,0,0,.22.88c.5.94,1.44,1.6,1.69,2.7s.14,2,.45,3c.21.66-.22,1.47-.32,2.21a2.88,2.88,0,0,0,.82,2.33c.28.36.64.64.72,1.11Z"/><path class="cls-2" d="M91.28,175.23a2.72,2.72,0,0,1,1.25-.94,4.88,4.88,0,0,0,1.47-1,1.19,1.19,0,0,1,1.61-.27,1.23,1.23,0,0,0,.89.2,3,3,0,0,1,2.82.55c.9.74,2.23.59,3.32,1a.82.82,0,0,1-1,.19,7.7,7.7,0,0,0-2-.18l-.44-.2c-.21-.67-.78-.57-1.28-.6l-.41,0c0-.12.07-.34,0-.36a.47.47,0,0,0-.64.12,3,3,0,0,0-2.53,1.49Z"/><path class="cls-6" d="M94.43,175.23A3,3,0,0,1,97,173.74c.13.27.38.23.62.24l.41,0c.21.65.77.59,1.28.6l.44.2c0,.15,0,.29,0,.43Z"/><path class="cls-2" d="M98.43,22.46h.63c.09.23.35.2.51.31-1,.64-2,1.3-3.1,1.91-.45.26-1,.2-1.15-.32-.2-.82-.88-1.11-1.4-1.58.28-.21.71,0,.93-.32h.42c0,.55.54,1,.43,1.57a.28.28,0,0,0,.41.3C97,23.79,98.08,23.61,98.43,22.46Z"/><path class="cls-5" d="M99.69,175.23c0-.14,0-.28,0-.43a7.7,7.7,0,0,1,2,.18.82.82,0,0,0,1-.19l.44.06c0,.13,0,.26,0,.38Z"/><path class="cls-2" d="M85.17,175.23c.07-.12.14-.11.21,0Z"/><path class="cls-7" d="M139.9,87.91l.13,1.22a.83.83,0,0,0-.1.67c0,.13,0,.18.18.18l.08.21a.51.51,0,0,0,.12.56l.07.19V91c-.5.27-.32.79-.21,1.08a10.05,10.05,0,0,1,.41,2.42,37.88,37.88,0,0,0,.31,4.12,9.88,9.88,0,0,1-1.94,5.62,21,21,0,0,0-1.91,2.56,3.52,3.52,0,0,1-.93,1.1l-1.92.84c-.78,0-1,.44-1.08,1.19a8.33,8.33,0,0,1-.78,3.4l-.49,0a52,52,0,0,0,1.32-7.84c0-.2,0-.49.27-.48s.33.26.31.48a13,13,0,0,1-.25,2.07c-.23.92.24.65.69.49A3.52,3.52,0,0,0,137,105.9a4.74,4.74,0,0,1,1.09-1.51,8.06,8.06,0,0,0,2.18-5.5,36.68,36.68,0,0,0-.19-4.17c0-.35.1-.83-.49-.87l.13-.46c.15-.42.35-.84,0-1.25,0-.45,0-.91,0-1.36a6.62,6.62,0,0,0-.81-3.73c.13-.18.23-.41.34-.56.4-.6,0-1.66,1.06-1.86a10.42,10.42,0,0,1,1.66-.26c1.63-.1,2-.54,2-2.21,0-.52-.45-1.14,0-1.48s1,.18,1.47.28c1.2.25,1.8-.33,1.42-1.49a6.19,6.19,0,0,0-1.53-2.72,8.38,8.38,0,0,1-2.71-7c.08-1.89,1-2.57,2.37-3.23.28-.13.6-.18.9-.29a2.07,2.07,0,0,0,1.41-2.5,3.77,3.77,0,0,0-2.07-2.85c-.76-.39-.61-.72-.09-1.13.11-.09.24-.14.36-.22a1.51,1.51,0,0,0,.76-1.6c-.1-.65-.63-.76-1.2-.75a1.15,1.15,0,0,1-1-.69,1.56,1.56,0,0,0-1.34-.85c-.37,0-1.07-.1-1-.57a21.68,21.68,0,0,1,.11-2.29c.48.06.59.45.76.8-.06.4-.32.83.21,1.11l.48.14a3.28,3.28,0,0,1,1.7,1.7c2.11.29,2.06,1,1.63,2.52-.08.12-.16.25-.25.37-.89.56-.23.94.16,1.35-.05.27.05.41.33.41a5,5,0,0,1,.76,4.06c-.18,1.14-1.32,1.17-2.14,1.55,0,0,0,0-.06.08l-1.51.82c-1.09.32-.61,1.23-.73,1.92A6.5,6.5,0,0,0,145,75.82a8.52,8.52,0,0,1,2.08,3.1c.87,2.12.52,2.65-1.76,2.66a.41.41,0,0,1-.11,0c-.63-.08-.86.13-.82.82a2,2,0,0,1-2.23,2.4A2.3,2.3,0,0,0,139.9,87.91Z"/><path class="cls-2" d="M142.39,94.86a35.29,35.29,0,0,1-.12,6.51c-.25,1.31-.2,2.89-1.38,4-.49.47-.14,1.62-1,2.06a6.83,6.83,0,0,0-1.47,1.31,23.68,23.68,0,0,1-2.85,2.44,2.67,2.67,0,0,0-1.23,2.17,20.84,20.84,0,0,1-1.46,5.64c-.61.22-.31,1.14-1,1.28-.41-1,.38-1.67.72-2.45a7.22,7.22,0,0,0,.83-3.28,7,7,0,0,1,1-3.75,2,2,0,0,0,1.79-.6c.69-.74,1.69-1.27,1.42-2.54,1.24-.31.86-2.1,2.17-2.37.38-.07.28-.41.23-.69a3,3,0,0,1,.54-2c.39-.73.37-1.67,1.2-2.18,0,0,0-.07,0-.1a36,36,0,0,1,.16-4.28l0-.6Z"/><path class="cls-2" d="M139.9,87.91a2.3,2.3,0,0,1,2.25-3.11,2,2,0,0,0,2.23-2.4c0-.69.19-.9.82-.82a.41.41,0,0,0,.11,0c2.28,0,2.63-.54,1.76-2.66a8.52,8.52,0,0,0-2.08-3.1,6.5,6.5,0,0,1-1.87-6.23c.12-.69-.36-1.6.73-1.92a19.59,19.59,0,0,1-.46,2.57,5,5,0,0,0,1.11,4.31,9.13,9.13,0,0,1,2.81,4.06,2.67,2.67,0,0,0,.74,1,1.25,1.25,0,0,1-.36,2.14,2.37,2.37,0,0,1-1.9.29c-.59-.2-.88,0-.89.73,0,1.75-.76,2.43-2.55,2.37-1,0-1.69.14-1.7,1.39A1.34,1.34,0,0,1,139.9,87.91Z"/><path class="cls-2" d="M130.22,161.55l0,.64a1.09,1.09,0,0,0-.46,1.06h0a4.84,4.84,0,0,0-2.09,2.22,1.48,1.48,0,0,0-2.3.33l-.51,1-1.14.7c-.27.15-.27.74-.6.61-.86-.32-1,.39-1.37.81l-.4.23a.89.89,0,0,0-.87.8l-.6.27a1.69,1.69,0,0,0-1.28,1c-.49.09-.64.79-1.23.67,0-.69.9-1.13.59-1.93l.43-.42a7.14,7.14,0,0,0,1.52-1.09c.44-.32.85-.76,1.45-.75a2.8,2.8,0,0,0,2.92-2.16l2.32-1.06c2.27-.62,2.3-.71,2.16-3,0-.53-.15-1.28.56-1.64.08.52.14,1,.24,1.54S130,161.61,130.22,161.55Z"/><path class="cls-5" d="M130.22,161.55c-.24.06-.54.36-.63-.15s-.16-1-.24-1.54,0-1,0-1.44c.54-.19.5-.67.57-1.09l0-.4a.39.39,0,0,0,.2-.43c-.14-1.12.69-2.05.62-3.16a3.93,3.93,0,0,0,.28-1.44c.11-.08.31-.16.31-.23a7,7,0,0,1,.65-2.58c.18-.48.39-1.18-.53-1.34-.21,0-.24-.32-.26-.53a.94.94,0,0,0-.8-.84V146l.38-.06-.42-.58v-.63c.6-.83-.06-1.56-.19-2.33a2.23,2.23,0,0,1,1.08,2.67,1.49,1.49,0,0,0,.41,1.44,2.68,2.68,0,0,1,.65,3c-.6,1.75-.61,3.63-1.15,5.37-.43,1.38-.58,2.8-.92,4.19-.18.71-.53,1.38.06,2.07C130.47,161.23,130.37,161.43,130.22,161.55Z"/><path class="cls-5" d="M131.64,122.19a1.65,1.65,0,0,1-.37,1.16,2.34,2.34,0,0,0,0,2.75c.53.82,0,1.9-.13,2.82-.29,1.49-1.47,2.45-2.44,3.52a.75.75,0,0,1-.54.26c-1.32-.21-1.48.64-1.51,1.61,0,.28-.09.48-.38.55l-.06-1.53V133c.13-.84.92-1.24,1.28-1.93h0c.71-.1,1.43-.19,1.71-1h0a1.38,1.38,0,0,0,1.38-1.3c.08-.77.49-1.74-.52-2.32a8.14,8.14,0,0,1,.59-2.92C131.1,123.15,131,122.37,131.64,122.19Z"/><path class="cls-1" d="M142,95.48l0,.61c-.35.08-.34.36-.37.65a3.51,3.51,0,0,1-.67,1.92,37.88,37.88,0,0,1-.31-4.12,10.05,10.05,0,0,0-.41-2.42c-.11-.29-.29-.81.21-1.08.5.14.71.88,1.38.67a1.23,1.23,0,0,1,0,.19c.13.52,0,1.15.59,1.48,0,.35,0,.69,0,1A.73.73,0,0,0,142,95.48Z"/><path class="cls-8" d="M125.63,138.63c-.19.45.21.82.16,1.25a2.53,2.53,0,0,0,.07,1.63c.21.41.1.67-.38.73l-.57-2.57c-.19-1.4-.39-2.8-.58-4.2,0-1,0-2,0-2.95l-.08-1.16.27-.62c.56.06.47.51.51.88a11.45,11.45,0,0,0,.39,2.79v.29a2.15,2.15,0,0,0,0,2l0,.39a1.74,1.74,0,0,0,.14,1.1Z"/><path class="cls-9" d="M125.48,142.24c.48-.06.59-.32.38-.73a2.53,2.53,0,0,1-.07-1.63l.43.42c-.2.82.49,1.38.61,2.11a3.81,3.81,0,0,0,.65,1.47,5.11,5.11,0,0,0,.82,1.9c.14.4.28.82.71,1,.59.2.4.55.25.91A11.47,11.47,0,0,1,125.48,142.24Z"/><path class="cls-5" d="M116.76,172.53c-1.15,2.12-3.24,2.44-4.75.7a2.61,2.61,0,0,0-1.72-.77c-.84-.1-.69-.52-.71-1,.54-.88,1.09,0,1.16.2.35.71,1,.83,1.61,1a1.28,1.28,0,0,1,.57.21,2,2,0,0,0,3.19-.59h.42Z"/><path class="cls-2" d="M116.11,172.3a2,2,0,0,1-3.19.59,1.28,1.28,0,0,0-.57-.21c-.63-.19-1.26-.31-1.61-1-.07-.15-.62-1.08-1.16-.2h-.42c.08-.69-.4-.64-.84-.63v-.22c.31-.28.59-.62,1.06-.63.42.23.73.67,1.28.63.1.37.33.38.62.21.29.89.8,1.46,1.84,1.3.15,0,.32.11.47.18,0,.7.36.76.87.46a2.81,2.81,0,0,1,1-.48Z"/><path class="cls-2" d="M142.54,53.56c-.17-.35-.28-.74-.76-.8l-.3-.54.16-.15c.76.35,1.5.71,1.63,1.7.07.51.52.52.9.48a1,1,0,0,1,1.13.73c.22.82.87,1.16,1.49,1.59a1.37,1.37,0,0,1-.23,2.46c.43-1.51.48-2.23-1.63-2.52,0-1.51-.25-1.72-1.7-1.7l-.48-.14C142.79,54.28,143,53.87,142.54,53.56Z"/><path class="cls-2" d="M126.83,142.41c-.12-.73-.81-1.29-.61-2.11H127c0,.55.11,1.07.85,1l.08.05-.08,0c.35-.47.69,0,1,0a.51.51,0,0,0,.44.2l.21.21h0a.38.38,0,0,0,.43.41l.22.21c.13.76.79,1.49.19,2.32-.27-.2-.18-.5-.21-.77-.06-.58,0-1.31-1-1-.08,0-.26,0-.28-.08C128.48,141.59,127.63,142.12,126.83,142.41Z"/><path class="cls-2" d="M146.47,60.75c-.39-.41-1.05-.79-.16-1.35.41,1.05,1.56,1.65,1.74,2.82a5.39,5.39,0,0,1-.5,3.9,2,2,0,0,1-2.19.73s0-.07.06-.08c.82-.38,2-.41,2.14-1.55a5,5,0,0,0-.76-4.06C146.83,60.91,146.73,60.77,146.47,60.75Z"/><path class="cls-5" d="M125.4,165.8a1.48,1.48,0,0,1,2.3-.33,4.84,4.84,0,0,1,2.09-2.22c-.25.86-1,1.44-1.27,2.33-.14.49-.74.41-1.19.38Z"/><path class="cls-2" d="M141.78,91.9a1.23,1.23,0,0,0,0-.19c-.09-.93-.74-.84-1.38-.77a1.46,1.46,0,0,1-.07-.19c.22-.25.17-.43-.12-.56l-.08-.21-.18-.18a.83.83,0,0,1,.1-.67,11.25,11.25,0,0,0,1.83,1.27c.8.43.61,1.52.63,2.37C142,92.67,142.37,91.9,141.78,91.9Z"/><path class="cls-10" d="M116.11,172.3l-.64,0,1.69-1.88a.45.45,0,0,0,.21-.41H118c.31.8-.54,1.24-.59,1.93a.44.44,0,0,1-.45.39c-.14-.23-.28-.23-.42,0Z"/><path class="cls-2" d="M140,47.76c1,.1,1,.94,1.06,1.6a8,8,0,0,0,.55,2.71l-.16.15-.74-.73c-.26-.9.26-1.89-.35-2.75Z"/><path class="cls-5" d="M121.78,168.91c.36-.42.51-1.13,1.37-.81.33.13.33-.46.6-.61l1.14-.7C124.43,168.34,123.23,168.81,121.78,168.91Z"/><path class="cls-2" d="M125.41,134.7c0-.1,0-.19,0-.29.67-.06.11-1,.78-1.08l.06,1.53c0,.13,0,.26,0,.39-.44.61-.16,1.28-.18,1.92l-.07,0-.56,0,0-.39A2.37,2.37,0,0,0,125.41,134.7Z"/><path class="cls-5" d="M108.32,170.82c.44,0,.92-.06.84.63l-2.92,1.28,0,0c.1-.51.57-.63.93-.86S108.15,171.41,108.32,170.82Z"/><path class="cls-8" d="M140,47.76l.36,1c-.23.07-.27.25-.3.45-.56-.56-1.11-1.12-.74-2l.26-.06A1.06,1.06,0,0,0,140,47.76Z"/><path class="cls-2" d="M131.64,122.19c-.64.18-.54,1-1,1.28a3.58,3.58,0,0,1,1.25-2.74l-.18,1.08Z"/><path class="cls-5" d="M131.7,121.81l.18-1.08,0-.42c.7-.14.4-1.06,1-1.28A4.52,4.52,0,0,1,131.7,121.81Z"/><path class="cls-5" d="M127.89,141.35c-.74,0-.82-.49-.85-1,.62.38,1.47.33,1.88,1.06-.34,0-.68-.48-1,0Z"/><path class="cls-5" d="M126,137.17c0-.64-.26-1.31.18-1.92C126.42,135.92,126.7,136.59,126,137.17Z"/><path class="cls-10" d="M141.78,91.9c.59,0,.24.77.71.87a.57.57,0,0,1-.12.61C141.78,93.05,141.91,92.42,141.78,91.9Z"/><path class="cls-5" d="M118.63,171.23a1.69,1.69,0,0,1,1.28-1A1.4,1.4,0,0,1,118.63,171.23Z"/><path class="cls-2" d="M103.69,174.6c.12-.6.59-.61,1.06-.62A.84.84,0,0,1,103.69,174.6Z"/><path class="cls-1" d="M125.41,137.12l.56,0,0,.56c-.29,0-.33.29-.39.51A1.74,1.74,0,0,1,125.41,137.12Z"/><path class="cls-5" d="M120.51,169.94a.89.89,0,0,1,.87-.8A.84.84,0,0,1,120.51,169.94Z"/><path class="cls-5" d="M129.79,163.25a1.09,1.09,0,0,1,.46-1.06C130.38,162.66,130.32,163.05,129.79,163.25Z"/><path class="cls-10" d="M142,95.48a.73.73,0,0,1,.4-1.06l0,.44Z"/><path class="cls-5" d="M105.15,173.33l0-.19.6,0,0,0a.63.63,0,0,1-.64.62Z"/><path class="cls-5" d="M125.55,138.22c.06-.22.1-.46.39-.51,0,.35.23.76-.31.92Z"/><path class="cls-2" d="M105.15,173.33l0,.44-.42.21C104.73,173.67,104.73,173.37,105.15,173.33Z"/><path class="cls-5" d="M130,142.19a.38.38,0,0,1-.43-.41A.39.39,0,0,1,130,142.19Z"/><path class="cls-2" d="M116.53,172.3c.14-.24.28-.24.42,0l-.19.24Z"/><path class="cls-5" d="M106.24,172.73a.44.44,0,0,1-.43.42l0,0a.4.4,0,0,1,.43-.41Z"/><path class="cls-5" d="M129.57,141.78l-.21-.21Z"/><path class="cls-11" d="M139.35,47.17c-.37.9.18,1.46.74,2l0,.82c-.78.77-.74,1,.23,1.49h.44l.74.73.3.54a21.68,21.68,0,0,0-.11,2.29c-.08.47.62.53,1,.57a1.56,1.56,0,0,1,1.34.85,1.15,1.15,0,0,0,1,.69c.57,0,1.1.1,1.2.75a1.51,1.51,0,0,1-.76,1.6c-.12.08-.25.13-.36.22-.52.41-.67.74.09,1.13a3.77,3.77,0,0,1,2.07,2.85,2.07,2.07,0,0,1-1.41,2.5c-.3.11-.62.16-.9.29-1.34.66-2.29,1.34-2.37,3.23a8.38,8.38,0,0,0,2.71,7,6.19,6.19,0,0,1,1.53,2.72c.38,1.16-.22,1.74-1.42,1.49-.5-.1-1.05-.63-1.47-.28s0,1,0,1.48c0,1.67-.41,2.11-2,2.21a10.42,10.42,0,0,0-1.66.26c-1,.2-.66,1.26-1.06,1.86-.11.15-.21.38-.34.56l-.63,0c-.26-.29-.37-.11-.45.14a3.31,3.31,0,0,0-1.16.57,2.84,2.84,0,0,0-2,1.78l-.34.55c-1.05-.52.33-1.14,0-1.72-.45.1-.56.68-1.05.64l.06-.9c.27-.09.39-.22.1-.44v-.41c.33-.25.16-.36-.12-.44l-.38-1.32c-.27-2.72-.17-5.44-.23-8.16-.05-1.78.39-3.58-.08-5.38S132,68.55,131,67a19.32,19.32,0,0,1-3.21-7.09c0-.1-.2-.16-.31-.24l0-.41a3.82,3.82,0,0,0-.15-3.17l-.3-1a13.19,13.19,0,0,0-3.13-4c-.07-.08-.27,0-.4-.06A33.71,33.71,0,0,1,118,49.15a3.91,3.91,0,0,0-3-.36l-.61-.09c-.26-.45-.59-.63-1.08-.33l-1-.31c-.08-.28-.2-.44-.44-.11l-.4-.08c-.13-.42-.35-.47-.65-.15l-.61-.11a2,2,0,0,0-2.13-.5l-.61-.11c-.54-.58-1.12-.42-1.71-.1l-.82-.07c-.12-.5-.53-.42-.84-.32a6.48,6.48,0,0,1-1.86.16c-2.57.07-5.13-.38-7.7-.21a4.53,4.53,0,0,0-2.66.8l-.62.05c-.3-.37-.72-.23-1.08-.21a32.36,32.36,0,0,0-14.78,4.38c-1.84,1-3.64,2.07-4.27,4.3a6,6,0,0,1-.6,1.22,8.68,8.68,0,0,0-1.38,5.26c.23,2-.6,3.91-.46,5.93a3.8,3.8,0,0,1-.87,2.08c-.84,1.27-1.81,2.6-.91,4.29A2.4,2.4,0,0,1,67,76.21a6.7,6.7,0,0,0,.06,3.21,7.72,7.72,0,0,1,.3,3.39,9.44,9.44,0,0,1-.26,2.51.84.84,0,0,0,.21,1c.36-.37-.11-1.12.66-1.21l.14,0L68,86.64c-.29.19-.3.41,0,.63,0,.29-.23.57,0,.86-.25.46-.06,1-.18,1.46-.45.53-.15,1.15-.21,1.73l-.08.35H66.9c.13-1.07,0-2-1.31-2.22a2.31,2.31,0,0,0-2.08-.07,5.86,5.86,0,0,0-1.95,1.12c-1.87,1.69-5.29.75-6.54-.86-.78-1-.34-2.13-.15-3.22.8-.34.73-1,.62-1.68a8.15,8.15,0,0,1,.19-1.63c.09-.69.55-1.35.26-2.09l.15-.31c.46,0,.63-.25.63-.65a2,2,0,0,0-.8-1.82c-.46-.31-1-.41-1.4-.88a3.25,3.25,0,0,1,1-5,35.51,35.51,0,0,1,3.39-1.67c.46-.22.89-.56.34-1-1.58-1.28-2.82-3.22-5.32-2.84a1.56,1.56,0,0,1-1.71-1,1.66,1.66,0,0,1,.29-2,6.88,6.88,0,0,1,2.28-1.55,3,3,0,0,0,2.3-3.92,14.56,14.56,0,0,0-1-2.41c-.44-1-.1-1.55,1-1.63.35,0,.74,0,.94-.33.58-1,1.46-.81,2.38-.78.59,0,1.4.67,1.79-.2s-.48-1.16-.92-1.6a2.2,2.2,0,0,1-.78-2.43.72.72,0,0,0-.48-1c-.65-.29-1.24-.75-1-1.49s1-.87,1.74-.8a1.61,1.61,0,0,0,.31,0,2.11,2.11,0,0,0,2.29-1.91c.1-.48.28-.9.91-.7.37.12.8.55,1.08,0a1.21,1.21,0,0,0-.11-1.39,3.54,3.54,0,0,1-.72-1.7c-.11-.43,0-1.14-.82-1.1l-.8-.42c.09-.66-.44-.45-.76-.55-.29-1.35-.27-1.37,1.17-1.7.11,0,.2-.16.3-.25s.3.07.38-.11l1.61.59a5.89,5.89,0,0,1,1.25,2.88,1,1,0,0,0,.13.28c.27.64.6.48.87,0,.53-.85,0-1.57-.41-2.23-1.24-2-.54-3.92.07-5.83.18-.58.92-1,1.44-.53,1,.94,2,.62,3.08.51.79-.08,1.08-.33,1.17-1.12a2.86,2.86,0,0,1,3-2.54c.92.07,1.22.6.79,1.41a8.21,8.21,0,0,0-.51,1c-.1.26.13.62.32.47.56-.43,1.5-.48,1.63-1.33A1.93,1.93,0,0,1,80,27.76a1.27,1.27,0,0,0,.73-.36A3.44,3.44,0,0,1,83.26,26c1.61-.26,1.66-.39,2.27,1.21a4.3,4.3,0,0,0,1-3.42,1.57,1.57,0,0,1,.32-1.08h2.32c.35.63,1,1,1.31,1.7.42.87,1,.76,1.57.09l.36-.38c.87-.86,1.48-.82,2.23.15a2,2,0,0,0,3.25.29c1.16-1,2.66-1.75,4-1,1.82,1,2.88,0,4.14-.84h1.24c.09.55.94.81.54,1.56a.72.72,0,0,0,.22,1,.89.89,0,0,0,1.14-.24,3.26,3.26,0,0,1,4.26-.94l.11.32c-.06.26-.28.53.08.75,0,.34-.21.85.47.8l.18.21c0,.72-.06,1.43,0,2.14,0,.51.07.51.63.36l1.06.06c.48.12,1,.61,1.35-.2.49-.35.67-1,1.32-1.17,0,.15.11.29.26.25s.13-.21.2-.33l.4-.07c.28.46.72.24,1.1.25a1,1,0,0,1,.47.63c-.13.05-.27.15-.2.29s.3.22.49.07l.91-.1c1.82-.53,3.76-.45,5.54-1.17,1.07-.43,1.68,0,1.73,1.12s-.14,1.52-1.65,2.13c-.4.16-1,.22-1,.76s.5.65.85.9.92.34,1.25.73c.09.55.45.83.93.67a.65.65,0,0,0,.4-1l0-.07c.36.25.6,0,.8-.24.69-.79,1.15-.35,1.6.27a1.57,1.57,0,0,1,.28.77c-.35.29-.12.37.15.44l0,.62c-.28.24-.17.57-.19.88-.06.76.15,1.51-.52,2.21-.49.52-.06,2.15.49,2.6l.05.39c-.11.74.61,1.65-.52,2.18a.29.29,0,0,0,.18.53,10.11,10.11,0,0,0,2.79-.08c-.4-.58-.92-1.12-.42-1.67a1.27,1.27,0,0,1,1.72-.09c.33.24.41,0,.57-.18a2.34,2.34,0,0,1,1.3,1.73c0,.4-.72.7-.17,1.18l0,.62c-.63.27-.48.65-.16,1.06V46c-.09.79.3,1.11,1,1.08A.07.07,0,0,1,139.35,47.17Z"/><path class="cls-7" d="M63.61,39c.81,0,.71.67.82,1.1a3.54,3.54,0,0,0,.72,1.7,1.21,1.21,0,0,1,.11,1.39c-.28.58-.71.15-1.08,0-.63-.2-.81.22-.91.7A2.11,2.11,0,0,1,61,45.8a1.61,1.61,0,0,1-.31,0c-.74-.07-1.53,0-1.74.8s.39,1.2,1,1.49a.72.72,0,0,1,.48,1,2.2,2.2,0,0,0,.78,2.43c.44.44,1.27.82.92,1.6s-1.2.22-1.79.2c-.92,0-1.8-.2-2.38.78-.2.34-.59.3-.94.33-1.07.08-1.41.64-1,1.63a14.56,14.56,0,0,1,1,2.41,3,3,0,0,1-2.3,3.92,6.88,6.88,0,0,0-2.28,1.55,1.66,1.66,0,0,0-.29,2,1.56,1.56,0,0,0,1.71,1c2.5-.38,3.74,1.56,5.32,2.84.55.44.12.78-.34,1a35.51,35.51,0,0,0-3.39,1.67,3.25,3.25,0,0,0-1,5c.36.47.94.57,1.4.88a2,2,0,0,1,.8,1.82c0,.4-.17.68-.63.65.1-1-.78-1.3-1.43-1.72a3.77,3.77,0,0,1,.12-6.61A2.67,2.67,0,0,0,56,71.45l.76-.39a4.06,4.06,0,0,0,1.59-.47c.37-.16.58-.32.13-.74-1.54-1.44-3-3-5.4-2.61,0,0-.07,0-.11,0a2,2,0,0,1-1.74-1.83,2.19,2.19,0,0,1,.88-2.4,15.67,15.67,0,0,1,2.6-1.36c.75-.33,1.62-.46,1.17-1.63-.06-.15.08-.41.19-.58A1.75,1.75,0,0,0,56,57.19a7.94,7.94,0,0,1-.68-1.06A1.34,1.34,0,0,1,56.2,54c.38-.1.88-.13,1-.46.58-1.25,1.51-1.12,2.56-.81a8.62,8.62,0,0,0,1.35.2c.2,0,.45.1.55-.15s-.11-.38-.26-.52A5.28,5.28,0,0,0,60,51.35a1.16,1.16,0,0,1-.63-1.66c.37-.72.15-1.09-.49-1.5a1.66,1.66,0,0,1-.77-2A1.9,1.9,0,0,1,60,44.94a7.55,7.55,0,0,0,1.26,0c.8-.13,1.25-.47,1-1.43-.35-1.45.11-1.82,1.54-1.37l.56.16C64.48,41,63.78,40.05,63.61,39Z"/><path class="cls-2" d="M63.61,39c.17,1.08.87,2.05.8,3.28l-.56-.16c-1.43-.45-1.89-.08-1.54,1.37.23,1-.22,1.3-1,1.43a7.55,7.55,0,0,1-1.26,0,1.9,1.9,0,0,0-1.88,1.25,1.66,1.66,0,0,0,.77,2c.64.41.86.78.49,1.5A1.16,1.16,0,0,0,60,51.35a5.28,5.28,0,0,1,1.39.93c.15.14.36.28.26.52s-.35.17-.55.15a8.62,8.62,0,0,1-1.35-.2c-1-.31-2-.44-2.56.81-.15.33-.65.36-1,.46a1.34,1.34,0,0,0-.91,2.11A7.94,7.94,0,0,0,56,57.19a1.75,1.75,0,0,1,.11,2.23c-.11.17-.25.43-.19.58.45,1.17-.42,1.3-1.17,1.63A15.67,15.67,0,0,0,52.12,63a2.19,2.19,0,0,0-.88,2.4A2,2,0,0,0,53,67.22s.07,0,.11,0c2.42-.41,3.86,1.17,5.4,2.61.45.42.24.58-.13.74a4.06,4.06,0,0,1-1.59.47c0-.07,0-.17.06-.19,1.07-.65,1.09-.86.18-1.76a4.36,4.36,0,0,0-3.64-1.45c-1.64.15-2.33-.56-2.65-2.3a2.6,2.6,0,0,1,1.69-3.23c.81-.31,1.58-.73,2.37-1.09a.55.55,0,0,0,.33-.6,1.44,1.44,0,0,1,.25-1c.9-1,.36-1.82-.31-2.66-.93-1.14-1-1.69-.31-2.62.1-.15.23-.36.36-.37,1.15-.16,1.7-1.27,2.68-1.69.19-.08.39-.29.56-.26,1.62.29.67-.59.49-1.09-.08-.23-.35-.53-.28-.66.68-1.17-.24-1.73-.83-2.48a1.78,1.78,0,0,1-.12-2c.39-.68.88-1.39,1.87-1.26a3.32,3.32,0,0,0,.63,0c.52,0,1.14.21,1.54-.13s-.16-.86-.22-1.32c-.16-1.21.51-1.87,1.73-1.65.23,0,.48.26.67,0s-.08-.44-.14-.67a1.79,1.79,0,0,0-1.59-1.54,3.06,3.06,0,0,1-2-1.26,1.32,1.32,0,0,1,.76-2.26,7.6,7.6,0,0,1,4.62.23c.47.17.53-.12.74-.29.37,1.21.34,1.24-.7,1l-1.61-.59c-.1-.21-.25-.21-.42-.12l-1.45,0a1.09,1.09,0,0,0-1.42.7,1.34,1.34,0,0,0,.58,1.62,1.63,1.63,0,0,0,1.15.39l.47,0Z"/><path class="cls-10" d="M56,71.45a2.67,2.67,0,0,1-1.23.94A3.77,3.77,0,0,0,54.66,79c.65.42,1.53.67,1.43,1.72l-.15.31c-.66.32-.7,1-.83,1.58a22,22,0,0,1-1,4c-1,2.2-.45,3.7,1.66,4.71,1.71.82,3.46,1.74,5.45.75.23.41.13.88.24,1.3.19.68-.15,1.67.94,1.92a25.87,25.87,0,0,1,.11,3.94A15.62,15.62,0,0,0,64,106.39c-.25,0-.34-.17-.47-.34A13.16,13.16,0,0,1,61,97.66a19.73,19.73,0,0,0-.16-3.76c-.11-.57-.17-.78-.83-.62-2,.52-3.68-.32-5.21-1.52l-.59-.44C52.54,90,52.4,90,53.12,87.63c.15-.5.18-1,.28-1.49.25-1.21,1-2.25,1.21-3.48,0-.27.22-.51.29-.78a2,2,0,0,0-.81-2.57,8.82,8.82,0,0,1-1.79-1.77,2.28,2.28,0,0,1-.11-3.21,8.37,8.37,0,0,1,3.33-2.86A.46.46,0,0,1,56,71.45Z"/><path class="cls-5" d="M74.1,149.8c-.23,0-.45-.07-.47-.32a1,1,0,0,0-.79-1c-.46-.12-.45-.79-.69-1.2a3,3,0,0,1,1.09-3.62,1.89,1.89,0,0,1,2,.34c.39.24.68.42,1.12.09s1-.11,1.51,0,1.16.13.94-.89c-.16-.7-.68-1.79.88-1.89.29,0,.8-.61.89-1.17s.13-1,.2-1.44a1,1,0,0,1,.71,1c-.2,1.37,0,2.74-.58,4.14-.39.92-.75,1.35-1.6,1.34a2.05,2.05,0,0,0-1.81,1,.87.87,0,0,1-1,.43,1.42,1.42,0,0,0-1.43.79c0,.87-.55,1.58-.54,2.41Z"/><path class="cls-12" d="M65.51,36.53c1,.21,1.07.18.7-1v-.41A5.4,5.4,0,0,0,66.59,33l.06-.39a.37.37,0,0,0,.11-.46l.07-.38a2.6,2.6,0,0,0,.25-.33c.76-1.47,1.35-1.56,2.42-.35.19.21.35.6.74.24l.39,0h1.45c.29,0,.62-.06.61-.41,0-1.31,1-2.07,1.62-3l.74-.36c.93-.17,1.87-.41,2.61.49.12.15.4.29.57.15.88-.75,2.33-.6,2.87-1.9.24-.57,3-1.38,3.54-1.14a3.53,3.53,0,0,1,.34.24c.29.15.41.78.91.34a.88.88,0,0,0,.1-1.31,1.89,1.89,0,0,1-.33-1.59,2.76,2.76,0,0,1,1.18-.05,1.57,1.57,0,0,0-.32,1.08,4.3,4.3,0,0,1-1,3.42c-.61-1.6-.66-1.47-2.27-1.21a3.44,3.44,0,0,0-2.5,1.41,1.27,1.27,0,0,1-.73.36,1.93,1.93,0,0,0-1.74,1.8c-.13.85-1.07.9-1.63,1.33-.19.15-.42-.21-.32-.47a8.21,8.21,0,0,1,.51-1c.43-.81.13-1.34-.79-1.41a2.86,2.86,0,0,0-3,2.54c-.09.79-.38,1-1.17,1.12-1.09.11-2.11.43-3.08-.51-.52-.5-1.26-.05-1.44.53-.61,1.91-1.31,3.85-.07,5.83.42.66.94,1.38.41,2.23-.27.45-.6.61-.87,0a1,1,0,0,1-.13-.28A5.89,5.89,0,0,0,65.51,36.53Z"/><path class="cls-7" d="M61.18,92.07c-2,1-3.74.07-5.45-.75-2.11-1-2.61-2.51-1.66-4.71a22,22,0,0,0,1-4c.13-.58.17-1.26.83-1.58.29.74-.17,1.4-.26,2.09a8.15,8.15,0,0,0-.19,1.63,5.09,5.09,0,0,0-.62,1.68c-.19,1.09-.63,2.22.15,3.22,1.25,1.61,4.67,2.55,6.54.86a5.86,5.86,0,0,1,1.95-1.12,16.57,16.57,0,0,0-.46,6.31,28,28,0,0,1,0,3A13.88,13.88,0,0,0,65,106.9c.14.24.48.47.18.82l-.55,0a3.45,3.45,0,0,0-.63-1.29,15.62,15.62,0,0,1-1.48-7.16,25.87,25.87,0,0,0-.11-3.94c0-1,.07-2,.1-3,0-.32.36-.73,0-.94s-.67.23-1,.42A1.3,1.3,0,0,0,61.18,92.07Z"/><path class="cls-13" d="M76.07,131.51c-.06-.07-.13-.14-.19-.22.1-.43-.16-.69-.4-1a5.09,5.09,0,0,1-1-5.35,5.48,5.48,0,0,1,.38.6c1.29,2.52,2.56,5,4,7.44,1,1.58,2,3.09,3.06,4.65.31.48.74,1,.38,1.62-.8-.29-.94-1.45-1.94-1.49l-.26-.37a9.71,9.71,0,0,0-1-2.24c-.57-1.19-1.78-2-2.18-3.29C76.79,131.57,76.41,131.47,76.07,131.51Z"/><path class="cls-7" d="M106,22.72c-1.26.83-2.32,1.85-4.14.84-1.34-.75-2.84,0-4,1a2,2,0,0,1-3.25-.29c-.75-1-1.36-1-2.23-.15L92,24.5c-.56.67-1.15.78-1.57-.09-.33-.67-1-1.07-1.31-1.7l1,0c.36.53.61,1.34,1.11,1.53s.74-.82,1.3-1.07a7.14,7.14,0,0,0,.71-.4l.64,0c.52.47,1.2.76,1.4,1.58.13.52.7.58,1.15.32,1-.61,2.07-1.27,3.1-1.91.8,0,1.59-.06,2.39-.05.3,0,.68-.08.86.23.53.92,1.12.53,1.73.13A1.84,1.84,0,0,1,106,22.72Z"/><path class="cls-2" d="M77.38,156.73c.1.6.9.78.86,1.46-.15.28-.65.56,0,.84.19.85.71.11,1,.23-.15.61.52,1.31-.2,1.87l-.66,0a3.54,3.54,0,0,1-1.28-.09c.28-.21.62,0,.85-.43-1.25-.31-1.15-1.16-.78-2.09.07-.18.17-.34,0-.56-1.31-1.42-2.57-2.88-3.88-4.29a2.15,2.15,0,0,1,.43-3.53l.12.39-.06,1.31a1.32,1.32,0,0,0,.09,1.64c.94,1.05,1.92,2.06,2.91,3.07C76.91,156.7,77.18,156.68,77.38,156.73Zm.21,3s-.06,0-.07,0,0,0,0,.06l.11-.08Z"/><path class="cls-10" d="M74.44,124.94a5.09,5.09,0,0,0,1,5.35c.24.31.5.57.4,1-2.15-1.51-2.37-3.76-2.32-6.11a1.31,1.31,0,0,0-.5-1.15l-.1-.56a2.67,2.67,0,0,0-.18-1.21,12.63,12.63,0,0,0-1.7-2.79l-.06-.6c.08-.3-.06-.43-.33-.49a.91.91,0,0,1,0-.17c.33-.31.19-.53-.15-.7l-.06-.79c.5,0,.52.59.94.66a11.91,11.91,0,0,0,1,3A26.8,26.8,0,0,1,74.44,124.94Z"/><path class="cls-2" d="M85.66,22.75A1.89,1.89,0,0,0,86,24.34a.88.88,0,0,1-.1,1.31c-.5.44-.62-.19-.91-.34a3.53,3.53,0,0,0-.34-.24c-.57-.24-3.3.57-3.54,1.14-.54,1.3-2,1.15-2.87,1.9-.17.14-.45,0-.57-.15-.74-.9-1.68-.66-2.61-.49A1.85,1.85,0,0,1,77.59,27a2,2,0,0,0,2.89-.8c.43-1,.94-1.71,2.18-1.22a.35.35,0,0,0,.3,0c1-.79,1.83-.7,2.64.41.28-.71-.31-.86-.41-1.22C85.05,23.56,84.52,22.87,85.66,22.75Z"/><path class="cls-7" d="M73.85,150.56l-.12-.39c.13-.12.25-.24.37-.37l.34-.05a36.4,36.4,0,0,0,3.5-1.54c1.76-1,3.3-2.18,3.76-4.34.1-.49-.16-1.06.3-1.46l.45.21,0,1a4.35,4.35,0,0,0-.35.76,6.26,6.26,0,0,1-2.86,3.7c-1.12.74-2.37,1.16-3.53,1.78A5.92,5.92,0,0,1,73.85,150.56Z"/><path class="cls-10" d="M76.07,131.51c.34,0,.72.06.81.35.4,1.33,1.61,2.1,2.18,3.29a9.71,9.71,0,0,1,1,2.24c-1.07-.7-1.42-1.94-2.16-2.89A14.87,14.87,0,0,1,76.07,131.51Z"/><path class="cls-5" d="M71.08,119.47a12.63,12.63,0,0,1,1.7,2.79,2.67,2.67,0,0,1,.18,1.21c-.89,0-1.4-.29-1.34-1.33,0-.43-.33-.89-.51-1.33S70.65,119.93,71.08,119.47Z"/><path class="cls-2" d="M70.24,31.28c-.39.36-.55,0-.74-.24-1.07-1.21-1.66-1.12-2.42.35a2.6,2.6,0,0,1-.25.33c-.22-.69-.37-1.39.42-1.8a1.64,1.64,0,0,1,2.24.37C69.75,30.61,70,31,70.24,31.28Z"/><path class="cls-2" d="M74.31,27.83c-.64,1-1.63,1.72-1.62,3,0,.35-.32.4-.61.41H70.63c1.35-.21,1.64-1.35,2.19-2.34C73.09,28.44,73.49,27.74,74.31,27.83Z"/><path class="cls-14" d="M71.41,117.38c-.42-.07-.44-.7-.94-.66,0-.13,0-.26-.08-.39l.06-.44c.26-1.22-.27-2.34-.45-3.51.41-.11.5.23.55.47C70.85,114.36,71.13,115.87,71.41,117.38Z"/><path class="cls-5" d="M70.45,115.89l-.06.44c-1-1.07-1.79-2.36-3.17-3.06-.2-.1-.25-.47-.38-.72l.07-.07c.34,0,.79,0,1,.26C68.6,113.91,69.82,114.66,70.45,115.89Z"/><path class="cls-5" d="M64.58,107.68l.55,0,0,0c-.28.22,0,.41,0,.61-.3.52.1.9.26,1.31.33.82.7,1.63,1,2.44l-.07.07c-1-.57-1-1.73-1.38-2.62C64.81,109,64.08,108.43,64.58,107.68Z"/><path class="cls-5" d="M78.42,161.16l.66,0c1.08.05.58.7.47,1.21l-.07.07a1.53,1.53,0,0,1-.61,0C78.35,162.13,78,161.79,78.42,161.16Z"/><path class="cls-10" d="M80.36,137.76c1,0,1.14,1.2,1.94,1.49l-.12.65-.73-.26a1,1,0,0,0-.72-1A1.4,1.4,0,0,1,80.36,137.76Z"/><path class="cls-2" d="M66.59,33a5.4,5.4,0,0,1-.37,2.14A1.82,1.82,0,0,1,66.59,33Z"/><path class="cls-5" d="M73.06,124a1.31,1.31,0,0,1,.5,1.15C73.06,124.94,73,124.49,73.06,124Z"/><path class="cls-5" d="M70.53,117.51c.34.17.48.39.15.7C70.39,118,70.45,117.77,70.53,117.51Z"/><path class="cls-5" d="M70.69,118.38c.27.06.41.19.33.49A.37.37,0,0,1,70.69,118.38Z"/><path class="cls-2" d="M66.76,32.1a.37.37,0,0,1-.11.46C66.4,32.34,66.54,32.21,66.76,32.1Z"/><path class="cls-5" d="M66.84,112.55a.45.45,0,0,1-.42-.42l.07-.07a.47.47,0,0,1,.42.42Z"/><path class="cls-14" d="M125.48,142.24a11.42,11.42,0,0,0,3.79,5.41c.83.14.64,1.24,1.37,1.48v.22c-.38.26-1,.24-1.07.84-.39,0-.35.26-.36.59a6.82,6.82,0,0,1-.38,2.66c-.68,1.34-1.3,2.87-3,3.29a2,2,0,0,0-.72.41c-.28.21-.52.54-.91.36s-.27-.59-.19-.91,0-.51-.31-.49c-1,.06-2-.31-2.66.86a3.46,3.46,0,0,1-.81.81c-.19.18-.48.33-.63,0-.73-1.36-1.33-1-2,.05-.22.33-.87.82-1.09.32s-.8-1-.8-1.76-.3-1.54-1.42-1.21c-.4.12-.87-.05-.83-.54.15-1.75-1.48-1.81-2.34-2.59h-.85a2.94,2.94,0,0,1,2.51-2.08,2.37,2.37,0,0,0,1.74-1,3.36,3.36,0,0,1,1.21-1.1,2.21,2.21,0,0,0,1.31-2.78.71.71,0,0,1,.07-.5,6.56,6.56,0,0,0,.61-1.65A3.43,3.43,0,0,1,118.9,141a1.55,1.55,0,0,0,.78-1.58c0-.31.09-.65-.25-.87l.44-.43c.21.34.56.22.87.25a10.83,10.83,0,0,1-.84,4.08c-.13.39-.37.79-.09,1.2a1.43,1.43,0,0,1,0,1.49,24.48,24.48,0,0,1-4.29,6.14c-1,1.14-.87,1.85.49,2.59a1,1,0,0,1,.57.8c.27,1.34.9,1.62,2.2,1.13.48-.19,1-.63,1.53-.06.21.23.44-.05.54-.29.83-1.8,2.84-1.89,4.23-2.88.07-.05.27,0,.38.08.76.49,1.18.05,1.49-.57a9.85,9.85,0,0,1,1.57-2.21c.56-.59.47-1-.33-1.1a14.3,14.3,0,0,1-2.67-.82c-1.11-.28-1.21-.91-1-1.77.34-1.16-.3-2.36.19-3.5.07-.19-.1-.36-.26-.52a2.14,2.14,0,0,1,.45-2.53Z"/><path class="cls-15" d="M111.06,152.09c.86.78,2.49.84,2.34,2.59,0,.49.43.66.83.54,1.12-.33,1.42.39,1.42,1.21s.55,1.19.8,1.76.87,0,1.09-.32c.69-1,1.29-1.41,2-.05.15.28.44.13.63,0A3.46,3.46,0,0,0,121,157c.63-1.17,1.71-.8,2.66-.86.34,0,.39.18.31.49s-.25.72.19.91.63-.15.91-.36a2,2,0,0,1,.72-.41c1.75-.42,2.37-1.95,3-3.29a6.82,6.82,0,0,0,.38-2.66c0-.33,0-.55.36-.59.31.23,1-.54,1,.19-.09,1.33-.22,2.84-1.17,3.82-1.67,1.72-2.47,4-4.21,5.67-.86.24-1.38,1-2.24,1.29s-1.38.28-1.77-.54c-.21-.46-.54-.36-.86-.17a9.45,9.45,0,0,0-1,.7c-.71.57-.93.24-1-.48-.18-1.13-.39-1.2-1.33-.61s-1.45,1.29-2.32,1.76c-.69.38-1.28,1-2.2.66-.12,0-.33.08-.48.15-1.39.66-1.48.66-2-.63-.24-.57-.61-.45-1-.37-1.06.21-1.3,0-1-1.06a24.67,24.67,0,0,1,3-5.84c.53-.77.85-1.4.23-2.23C111,152.41,111.07,152.23,111.06,152.09Z"/><path class="cls-3" d="M125.16,159.87c1.74-1.63,2.54-4,4.21-5.67.95-1,1.08-2.49,1.17-3.82.06-.73-.65,0-1-.19.1-.6.69-.58,1.07-.84.61.77.31,1.7.44,2.55a3.93,3.93,0,0,1-.28,1.44c-.18,0-.33.11-.37.31a6.24,6.24,0,0,1-2,3.25c-.84.8-2,1.83-1.56,3.37a7.07,7.07,0,0,1,0,3.39c-.54.16-1-.65-1.46-.24-1.07,1.08-2.51,1.45-3.79,2.09a8,8,0,0,0-4.22,4.47.45.45,0,0,1-.21.41c-.91,0-1.42.69-2,1.14-.39.28-.53.18-.94,0-1-.57,0-1.08,0-1.81-.77.55-1,.14-.94-.45-.46,0-.54.56-1,.39,0-.31.4-1-.34-.88a10.48,10.48,0,0,0-4.14,1,4.78,4.78,0,0,0-2.11,2.11l-.41.21c.15-.48-.41-1,.09-1.48a5.89,5.89,0,0,1,2.84-1.87,8.29,8.29,0,0,0,2.89-1.37,3.72,3.72,0,0,1,3.08-.89.63.63,0,0,0,.87-.48c.28-.79.51-1.59.79-2.38.09-.24.17-.57.54-.54s.36.27.48.49c.63,1.19.86,1.25,2,.5a1.19,1.19,0,0,1,1.28,0,.93.93,0,0,0,1,.08A8.86,8.86,0,0,0,125.16,159.87Z"/><path class="cls-9" d="M82.18,139.9l.12-.65c.36-.65-.07-1.14-.38-1.62-1-1.56-2.09-3.07-3.06-4.65-1.48-2.4-2.75-4.92-4-7.44a5.48,5.48,0,0,0-.38-.6,26.8,26.8,0,0,0-2.06-4.53,11.91,11.91,0,0,1-1-3c-.28-1.51-.56-3-.86-4.53,0-.24-.14-.58-.55-.47a3.37,3.37,0,0,1-1.82-.7,2.7,2.7,0,0,1-1.34-2.18c.58.09.66.65.92,1a2.32,2.32,0,0,0,2,1.14c.58.07.66-.29.55-.71a5.91,5.91,0,0,0-.78-2l-.84-2.53,0-.21a.74.74,0,0,0,0-.21c.11-.16.16-.41.45-.35l.22.47c-.12.1-.19.2,0,.25a52.06,52.06,0,0,1,1.88,7,20.93,20.93,0,0,0,1.65,6.6c1.4,2.81,2.52,5.76,4.08,8.5a44.56,44.56,0,0,0,4.33,7,31.7,31.7,0,0,0,3.81,5.66,40,40,0,0,0,3.6,5.06,5.43,5.43,0,0,0,1.66,1.09,4,4,0,0,0,2.11.86,22,22,0,0,0,8.43,1.2c3.58-.08,7.09-.41,10-2.8l.35.34a3.42,3.42,0,0,1-2,1.59A27.43,27.43,0,0,1,93,149l-2.1-.68A9.36,9.36,0,0,1,86.34,144a7.07,7.07,0,0,0-.92-1.14,4,4,0,0,0-.85-1.26,4,4,0,0,0-1.1-1.58c-.14-.14-.26-.49-.54-.3-.12.09-.09.38-.13.58a1.14,1.14,0,0,0-.12.9l0,1.26-.19.21-.45-.21A9.19,9.19,0,0,1,82.18,139.9Z"/><path class="cls-3" d="M93,149a27.43,27.43,0,0,0,16.36-.47,3.42,3.42,0,0,0,2-1.59c.93-.74,1.59-1.77,2.6-2.43.78,0,.83.48.62,1.06a7,7,0,0,1-3.19,3.67c-.32.18-.72.3-.72.78v.21a9.72,9.72,0,0,0-3.67,1,5.82,5.82,0,0,1-3.52.58,16.15,16.15,0,0,0-3.87-.13,3.18,3.18,0,0,1-1.44-.21c-1.32-.33-2.72-.25-4-.83C93.51,150.3,92.51,150.12,93,149Z"/><path class="cls-3" d="M82.64,142.41l0-1.26a8.84,8.84,0,0,1,3,4.74,4.9,4.9,0,0,0,1.56,2.65.57.57,0,0,1,.2.56,2.78,2.78,0,0,1-2.13,2c-.66-.05-1.16.26-1.19.89,0,1-1.14,1-1.48,1.75a.21.21,0,0,1-.19,0c-1.08-.78-1.92-.17-2.83.4a1.34,1.34,0,0,1-1.41-.09c-.53-.42-.94-.82-1.74-.56-.51.16-.32-.46-.38-.76.67.13.8-.9,1.23-.76,1,.32,2.22-.84,3.09.54.17-.67-.07-1.35.51-1.59s.66.49,1,.78c.44.44.84.44,1-.11.3-.78,1.41-1,1.34-2,0-.1.32-.29.51-.32a.92.92,0,0,0,.76-1.33C84.9,145.91,84.81,143.6,82.64,142.41Z"/><path class="cls-10" d="M75.67,149.91c1.16-.62,2.41-1,3.53-1.78a6.26,6.26,0,0,0,2.86-3.7,4.35,4.35,0,0,1,.35-.76c.36,0,.71,0,.84.45a10,10,0,0,1,.44,3.91,1.68,1.68,0,0,1-2.24,1.35c-1.31-.61-1.32-.6-1.34.85,0,.26.16.91-.41.61s-.9,0-1.35.11a20.72,20.72,0,0,0-2.23.72l-.21-.63Z"/><path class="cls-4" d="M76.12,151.67a20.72,20.72,0,0,1,2.23-.72c.45-.06.78-.4,1.35-.11s.41-.35.41-.61c0-1.45,0-1.46,1.34-.85A1.68,1.68,0,0,0,83.69,148a10,10,0,0,0-.44-3.91c-.13-.44-.48-.45-.84-.45,0-.35,0-.7,0-1l.19-.21c2.17,1.19,2.26,3.5,2.93,5.5a.92.92,0,0,1-.76,1.33c-.19,0-.51.22-.51.32.07,1-1,1.24-1.34,2-.21.55-.61.55-1,.11-.29-.29-.35-1-1-.78s-.34.92-.51,1.59c-.87-1.38-2-.22-3.09-.54-.43-.14-.56.89-1.23.76Z"/><path class="cls-15" d="M110.63,150.19V150a3.88,3.88,0,0,0,3-1.42c.44-.42,1-.71,1.24-1.36a33.29,33.29,0,0,1,1.92-3.88,9.76,9.76,0,0,0,1.63-3.89l.42-.42c.06.57.5.43.85.45a1.55,1.55,0,0,1-.78,1.58,3.43,3.43,0,0,0-1.24,1.89,6.56,6.56,0,0,1-.61,1.65.71.71,0,0,0-.07.5,2.21,2.21,0,0,1-1.31,2.78,3.36,3.36,0,0,0-1.21,1.1,2.37,2.37,0,0,1-1.74,1,2.94,2.94,0,0,0-2.51,2.08.72.72,0,0,1-.21,0c-.48-.16-1.27-.11-1.32-.62-.08-.74.8-.57,1.27-.79C110.21,150.54,110.61,150.65,110.63,150.19Z"/><path class="cls-14" d="M85.42,142.81a7.07,7.07,0,0,1,.92,1.14,9.36,9.36,0,0,0,4.52,4.33,1.64,1.64,0,0,1-2.35.17,4.4,4.4,0,0,1-1.22-1.38c-.56-1.29-1.58-2.33-1.94-3.74C85.29,143.12,85.18,143,85.42,142.81Z"/><path class="cls-4" d="M77.38,156.73c-.2,0-.47,0-.59-.15-1-1-2-2-2.91-3.07a1.32,1.32,0,0,1-.09-1.64H74a3.19,3.19,0,0,0,1.1,2.18,15.42,15.42,0,0,1,2.27,2.44Z"/><path class="cls-3" d="M74,151.88h-.23l.06-1.31a5.92,5.92,0,0,0,1.82-.65l.24,1.13A1.73,1.73,0,0,0,74,151.88Z"/><path class="cls-12" d="M82.8,140.25c0-.2,0-.49.13-.58.28-.19.4.16.54.3a4,4,0,0,1,1.1,1.58C83.78,141.4,83.41,140.66,82.8,140.25Z"/><path class="cls-7" d="M133,33.19a1.57,1.57,0,0,0-.28-.77c-.45-.62-.91-1.06-1.6-.27-.2.24-.44.49-.8.24a1.53,1.53,0,0,1,1.45-1.28c.8,0,1.13.6,1.45,1.28.46,1,.41,2.15,1.22,3a1.84,1.84,0,0,0,.34,1,4.46,4.46,0,0,0-1,2.67c.07,1.45.09,1.54,1.49.93a3.57,3.57,0,0,0,1.49.12.69.69,0,0,1,.33.59c-.45.1-.88-.29-1.33-.11-.92.34-1.84.78-2.63-.25,0,0-.07,0-.1,0s0-.26-.05-.39c.13-.85-.34-1.9.23-2.52,1.08-1.16.5-2.12,0-3.17,0-.21,0-.41,0-.62A.4.4,0,0,0,133,33.19Z"/><path class="cls-12" d="M127.66,32.11c-.35-.25-.91-.36-.85-.9s.64-.6,1-.76c1.51-.61,1.71-.85,1.65-2.13s-.66-1.55-1.73-1.12c-1.78.72-3.72.64-5.54,1.17a5,5,0,0,1,2.23-.79,8.45,8.45,0,0,0,3.26-1,1.41,1.41,0,0,1,2.1.49c.68,1.41.81,2.33-.31,3.32a4,4,0,0,1-1.46.79C127.45,31.36,127.5,31.68,127.66,32.11Z"/><path class="cls-8" d="M133,40.33s.08,0,.1,0c.79,1,1.71.59,2.63.25.45-.18.88.21,1.33.11.16,0,.31.11.26.32s-.24.42-.57.18a1.27,1.27,0,0,0-1.72.09c-.5.55,0,1.09.42,1.67a10.11,10.11,0,0,1-2.79.08.29.29,0,0,1-.18-.53C133.58,42,132.86,41.07,133,40.33Z"/><path class="cls-7" d="M113.42,24.11a3.26,3.26,0,0,0-4.26.94.89.89,0,0,1-1.14.24.72.72,0,0,1-.22-1c.4-.75-.45-1-.54-1.56l1,0c.1.47.21.94.31,1.41-.18.13-.19.29,0,.36s.53,0,.56-.34a4.53,4.53,0,0,1,2.56-1.11c.26.3.57.19.88.1C113,23.35,113.44,23.53,113.42,24.11Z"/><path class="cls-12" d="M114.26,26.19l-.18-.21,0-.58c1.61,1,1.78,1.59.75,2.73-.26-.22-.18-.5-.08-.74A.8.8,0,0,0,114.26,26.19Z"/><path class="cls-9" d="M114.26,26.19a.8.8,0,0,1,.52,1.2c-.1.24-.18.52.08.74,0,.19,0,.37,0,.56-.56.15-.61.15-.63-.36C114.2,27.62,114.25,26.91,114.26,26.19Z"/><path class="cls-12" d="M119.46,27.23l-.4.07-.23-.11c1.26-.92,2.17-.56,2.46,1l-.26-.05a1,1,0,0,0-.47-.63C120.29,27,119.91,27,119.46,27.23Z"/><path class="cls-7" d="M138.4,44.55c0-.21,0-.41,0-.62h.41c.07.78.15,1.55.22,2.32l-.8-.25c0-.12,0-.25,0-.38C138.52,45.29,138.38,44.91,138.4,44.55Z"/><path class="cls-7" d="M130.24,32.46a.65.65,0,0,1-.4,1c-.48.16-.84-.12-.93-.67A1.77,1.77,0,0,0,130.24,32.46Z"/><path class="cls-8" d="M138.25,46l.8.25a1.12,1.12,0,0,1,.24.83C138.55,47.1,138.16,46.78,138.25,46Z"/><path class="cls-12" d="M136.7,40.11a3.57,3.57,0,0,1-1.49-.12A.91.91,0,0,1,136.7,40.11Z"/><path class="cls-12" d="M117.28,28.55c-.34.81-.87.32-1.35.2C116.34,28.45,116.84,28.64,117.28,28.55Z"/><path class="cls-8" d="M138.83,43.92h-.41c-.55-.48.19-.78.17-1.18C139,43.08,138.85,43.51,138.83,43.92Z"/><path class="cls-12" d="M134.75,36.39a1.84,1.84,0,0,1-.34-1C134.82,35.61,135.27,35.84,134.75,36.39Z"/><path class="cls-9" d="M114.11,25.4l0,.58c-.68.05-.43-.46-.47-.8l.28,0Z"/><path class="cls-9" d="M121,28.11l.26.05,0,.31c-.19.15-.38.14-.49-.07S120.9,28.16,121,28.11Z"/><path class="cls-7" d="M113.89,25.15l-.28,0c-.36-.22-.14-.49-.08-.75C113.84,24.58,113.82,24.88,113.89,25.15Z"/><path class="cls-9" d="M118.83,27.19l.23.11c-.07.12-.11.3-.2.33s-.23-.1-.26-.25Z"/><path class="cls-10" d="M79.55,162.34c.11-.51.61-1.16-.47-1.21.72-.56,0-1.26.2-1.87V159h0c1-.42,1.14.53,1.51,1a1.09,1.09,0,0,1,.13,1.5,1,1,0,0,0-.38.71l-.64.22Z"/><path class="cls-10" d="M83.29,166.61c-.25-1.1-1.19-1.76-1.69-2.7a1.88,1.88,0,0,1-.22-.88C82.75,163.75,83.68,165.48,83.29,166.61Z"/><path class="cls-10" d="M78.23,159c-.64-.28-.14-.56,0-.84.39,0,.58.56,1,.42h0V159h-.62c-.15-.22-.29-.23-.43,0Z"/><path class="cls-10" d="M79.28,158.61l0-.09,0,.09Z"/><path class="cls-10" d="M105.58,171.87a4.78,4.78,0,0,1,2.11-2.11l.62.84v.22a2.47,2.47,0,0,0-1,.2c-.64.27-1,.94-1.74,1.06Z"/><path class="cls-2" d="M105.59,172.08c.71-.12,1.1-.79,1.74-1.06a2.47,2.47,0,0,1,1-.2c-.17.59-.75.72-1.18,1s-.83.35-.93.86a.4.4,0,0,0-.43.41l-.6,0C105.11,172.71,105.63,172.5,105.59,172.08Z"/><path class="cls-5" d="M99.27,174.6c-.51,0-1.07.05-1.28-.6C98.49,174,99.06,173.93,99.27,174.6Z"/><path class="cls-5" d="M97.58,174c-.24,0-.49,0-.62-.24a.47.47,0,0,1,.64-.12C97.65,173.64,97.59,173.86,97.58,174Z"/><path class="cls-10" d="M124.5,130.74l-.27.62c-.88.58-1.18,1.6-1.76,2.41-1.15,1.6-2.07,3.38-3.81,4.48-.58-.84-1.2-1.32-2-.27a.56.56,0,0,1-.67.17c-.42-.19-.11-.51,0-.72a23.87,23.87,0,0,1,1-2.42,25.28,25.28,0,0,0,1.9-7.26c.31-2.27-.57-4.47-1.51-6.54-.44-1-.42-1.11.59-1.1a7.08,7.08,0,0,0,6.51-4.13,21.42,21.42,0,0,0,2.43-7.52,5.13,5.13,0,0,0-1.49-4.79,4.15,4.15,0,0,0-6.47,1.81c-.5,1.35-.59,2.79-1.07,4.14s-.65,1.36-1.92,1.1a4.17,4.17,0,0,0-3.22.54c-1,.66-1.29.48-1.35-.76,0-.48,0-.93-.62-1a4.68,4.68,0,0,0-.59-5,11.63,11.63,0,0,1-.67-1,1.93,1.93,0,0,1,.68-.43,11.77,11.77,0,0,1,3.91-.4c1,.07,1.37-.7,1.74-1.28.15-.24-.73-.47-1.12-.73a3,3,0,0,0-.56-.29c-2.72-1.14-4.47-3.37-6.26-5.55-.39-.48-.16-1.09.35-.91,1.17.44,2.38,0,3.56.39a3.2,3.2,0,0,0,2.75-.38c.52-.36.79-.74,1.09.12.09.25.33.18.54.12.37-.11.74-.22,1.11-.3a1,1,0,0,1,1.14.57c.24.49-.26.72-.64.91s-.59.22-.87.36-.75.37-.64.83.51.46.87.44a2.12,2.12,0,0,1,1.57.63,1.88,1.88,0,0,0,2.25.17,12.34,12.34,0,0,0,3.19-2.51c.94-1,1-1-.39-1.47-.87-.28-1.4-1-1.14-1.57a10.79,10.79,0,0,1,.77-1.47c.84-1.31,1-1.36,2.35-.72.65.3.71,0,.78-.51a10.61,10.61,0,0,0-.22-1.86c.26-.93-.56-1.11-1.07-1.4a17.22,17.22,0,0,0-5.66-2c-.27-.53-.57-.42-.87,0h-1c-.17-.35-.33-.36-.45,0l-1.14.16a11.52,11.52,0,0,0-8,4.34l-.16.19-.06.22-.14.21-.24.85c-.63,0-1.26-.09-1.66.6-.23.39-.56.26-.75-.06-.35-.58-.94-.94-1.32-1.48s-1.09-1.36-.38-2.15c1.64-1.83,2.38-4.25,4-6,.08-.08.05-.26.07-.4v-.15l.22-.09a.39.39,0,0,0,.43-.14l.62-.14a.33.33,0,0,0,.43-.08A1.43,1.43,0,0,0,110,80a.34.34,0,0,0,.42-.09l.63-.06a1.21,1.21,0,0,0,1.2-.46l.27-.13a1.44,1.44,0,0,0,1-.5l.71-.24a.35.35,0,0,0,.44-.08l.86.06c-.08.56.37.66.73.87A30.57,30.57,0,0,0,120.87,81c1.29.49,1.5.33,1.34-1.06a1.13,1.13,0,0,0-.43-.81,1.18,1.18,0,0,1-.41-1.12c1.47,0,2.7.7,4,1.19a.13.13,0,0,0,.12.09,6.5,6.5,0,0,0,1.83,2c.25.17.49.32.75.08a.5.5,0,0,0,0-.68,6.81,6.81,0,0,1-1.56-3.45.71.71,0,0,0-.35-.49.61.61,0,0,0-.35-.52,1.72,1.72,0,0,1-.64-1.8c.88-.2,1.51.39,2.22.71a1,1,0,0,0,1.09,0c.22-.16.3-.5.15-.65-.62-.61-.5-1.53-1-2.17s.17-.55.71-.76c-1-.11-1-1.1-1.77-1.09a29.29,29.29,0,0,1-1.49-5.27c-.71-2.85-.9-5.83-2.06-8.58-.36-.84-.69-1.8-1.92-1.72,0-1.17-.27-2.37.63-3.37.93,0,1.59,1,2.58.79l.45.59c-.09.3,0,.47.31.52a.2.2,0,0,1,.09.13,1.11,1.11,0,0,0,1.19,1.13l.21.23a2.54,2.54,0,0,0,.56,1.89l0,.59c-.42.29-.41.59,0,.89l.13,1c-.24.65-.64,1.39-.3,2,.63,1.1.94,2.32,1.5,3.4S130,66.89,130.55,68c.7,1.4,1.39,3,.64,4.69a1.19,1.19,0,0,0,.17,1.46c.67.59.56,1.26.42,2-.32,1.77-.8,3.54-.29,5.37a9.21,9.21,0,0,1,.21,2c.06.75,0,1.71.4,2.21a3.73,3.73,0,0,1,.65,2.63c0,.48-.17,1,.2,1.41-.29,1.28.58,2.4.43,3.72s-.55,2.51.61,3.69c.7.72.39,1.93.22,2.94a11.58,11.58,0,0,0-.45,3.41,2.07,2.07,0,0,1,.46,1.31c-.06,1.06,0,2.12,0,3.19-.45.16-.92.43-.69-.49a13,13,0,0,0,.25-2.07c0-.22-.09-.47-.31-.48s-.25.28-.27.48a52,52,0,0,1-1.32,7.84,3,3,0,0,0-.38,1.39,23.61,23.61,0,0,1-1.85,6.39c-1.18,2.48-2.72,4.79-4.1,7.17a3.29,3.29,0,0,0-.92,1.67c-.12.25-.25.49-.08.77Z"/><path class="cls-15" d="M134.18,108.05c0-1.07,0-2.13,0-3.19a2.07,2.07,0,0,0-.46-1.31c.11,0,.29,0,.3,0a8.59,8.59,0,0,1,2.36-2.76,1,1,0,0,0,.31-.64,7.75,7.75,0,0,0-1.89-5.62c-.4-.44-.69-.51-1.09.32,0-1.52,0-2.71,0-3.9,0-.47.31-.56.54-.79s.23-.36.34-.55a2.72,2.72,0,0,0,2-1.78,3.31,3.31,0,0,1,1.16-.57.31.31,0,0,0,.45-.14l.63,0a6.62,6.62,0,0,1,.81,3.73c0,.45,0,.91,0,1.36l-.17.18c-.36-1,0-2.12-.54-3.14-.59-1.22-.7-1.31-2-.62-1.11.39-.45,1.3-.5,2-.44-.21-.57-.89-1.19-.53a1.64,1.64,0,0,0-.66,2.27,13.72,13.72,0,0,1,2,3.81,9.18,9.18,0,0,0,.53-2.34h.2l.07,0h.09c.11,1.82.83,3.59.47,5.45a7.47,7.47,0,0,1-.87,2.42c-.16.26-.36.64,0,.84s.64-.15.82-.43a7.13,7.13,0,0,0,.92-2.62,16.76,16.76,0,0,0,.7-5.63c.59,0,.47.52.49.87a36.68,36.68,0,0,1,.19,4.17,8.06,8.06,0,0,1-2.18,5.5A4.74,4.74,0,0,0,137,105.9,3.52,3.52,0,0,1,134.18,108.05Z"/><path class="cls-4" d="M131.9,120.31l0,.42a3.58,3.58,0,0,0-1.25,2.74,8.14,8.14,0,0,0-.59,2.92c-.12.21-.34.44-.18.67.81,1.13.09,1.82-.69,2.51a1.7,1.7,0,0,0-1.4-.07,4.7,4.7,0,0,1-2,.27c.08-.45.52-.76.48-1.25.19-.37.35-.75.57-1.09a44.82,44.82,0,0,0,3.57-6.18,25.93,25.93,0,0,0,2-7.88,8.33,8.33,0,0,0,.78-3.4c.1-.75.3-1.18,1.08-1.19,0,.6.09,1.08.85,1-.14.4-.76.49-.63,1a7,7,0,0,0-1,3.75,7.22,7.22,0,0,1-.83,3.28C132.28,118.64,131.49,119.31,131.9,120.31Z"/><path class="cls-11" d="M137,88.56c1.29-.69,1.4-.6,2,.62.49,1,.18,2.13.54,3.14,0,.38-.17.77.19,1.07l-.13.46a16.76,16.76,0,0,1-.7,5.63l-.85-.21c.36-1.86-.36-3.63-.47-5.45.61-.85.14-1.62-.16-2.41A4.46,4.46,0,0,1,137,88.56Z"/><path class="cls-10" d="M134.41,110.83c-.13-.56.49-.65.63-1,.13-.74,1.12-1,1.07-1.84a3.52,3.52,0,0,0,.93-1.1,21,21,0,0,1,1.91-2.56,9.88,9.88,0,0,0,1.94-5.62,3.51,3.51,0,0,0,.67-1.92c0-.29,0-.57.37-.65a35.78,35.78,0,0,0-.16,4.27s0,.09,0,.1c-.83.51-.81,1.45-1.2,2.18a3,3,0,0,0-.54,2c0,.28.15.62-.23.69-1.31.27-.93,2.06-2.17,2.37.27,1.27-.73,1.8-1.42,2.54A2,2,0,0,1,134.41,110.83Z"/><path class="cls-8" d="M132.33,113.37a25.93,25.93,0,0,1-2,7.88,44.82,44.82,0,0,1-3.57,6.18c-.22.34-.38.72-.57,1.09l-.7-.24c1.38-2.38,2.92-4.69,4.1-7.17a23.61,23.61,0,0,0,1.85-6.39,3,3,0,0,1,.38-1.39Z"/><path class="cls-1" d="M136.11,107.94c0,.85-.94,1.1-1.07,1.84-.76.08-.87-.4-.85-1Z"/><path class="cls-12" d="M143.23,54.81c1.45,0,1.66.19,1.7,1.7A3.28,3.28,0,0,0,143.23,54.81Z"/><path class="cls-10" d="M140.38,90.94c.64-.07,1.29-.16,1.38.77-.67.21-.88-.53-1.38-.67Z"/><path class="cls-12" d="M142.54,53.56c.42.31.25.72.21,1.11C142.22,54.39,142.48,54,142.54,53.56Z"/><path class="cls-12" d="M139.67,93.39c-.36-.3-.24-.69-.19-1.07l.17-.18C140,92.55,139.82,93,139.67,93.39Z"/><path class="cls-1" d="M140.19,90.19c.29.13.34.31.12.56A.51.51,0,0,1,140.19,90.19Z"/><path class="cls-12" d="M146.47,60.75c.26,0,.36.16.33.41C146.52,61.16,146.42,61,146.47,60.75Z"/><path class="cls-1" d="M139.93,89.8l.18.18C140,90,139.92,89.93,139.93,89.8Z"/><path class="cls-10" d="M126.84,163.66a7.07,7.07,0,0,0,0-3.39c-.44-1.54.72-2.57,1.56-3.37a6.24,6.24,0,0,0,2-3.25c0-.2.19-.27.37-.31.07,1.11-.76,2-.62,3.16-.26.05-.52.1-.2.43l0,.4c-.54.18-.6.61-.57,1.09s0,1,0,1.44c-.71.36-.59,1.11-.56,1.64.14,2.28.11,2.37-2.16,3Z"/><path class="cls-4" d="M126.84,163.66l-.21.83-2.32,1.06c-.28-.35-.58-.17-.82,0a17,17,0,0,1-3.41,2,2.49,2.49,0,0,0-1.66,2L118,170h-.62a8,8,0,0,1,4.22-4.47c1.28-.64,2.72-1,3.79-2.09C125.79,163,126.3,163.82,126.84,163.66Z"/><path class="cls-10" d="M118.42,169.55a2.49,2.49,0,0,1,1.66-2,17,17,0,0,0,3.41-2c.24-.19.54-.37.82,0a2.8,2.8,0,0,1-2.92,2.16c-.6,0-1,.43-1.45.75A7.14,7.14,0,0,1,118.42,169.55Z"/><path class="cls-3" d="M130.64,149.13c-.73-.24-.54-1.34-1.37-1.48.14-.36.33-.71-.26-.91-.43-.14-.57-.56-.71-1,.54-1.39.35-1.85-.82-1.9a3.81,3.81,0,0,1-.65-1.47c.8-.29,1.65-.82,2.12.46,0,.06.2.11.28.08,1-.31.91.42,1,1,0,.27-.06.57.21.77v.63c-.27.23-.26.45,0,.64,0,.13,0,.26,0,.39C130.25,147.32,130.67,148.21,130.64,149.13Z"/><path class="cls-2" d="M130.64,149.13c0-.92-.39-1.81-.18-2.75a.94.94,0,0,1,.8.84c0,.21.05.49.26.53.92.16.71.86.53,1.34a7,7,0,0,0-.65,2.58c0,.07-.2.15-.31.23-.13-.85.17-1.78-.44-2.55A1.62,1.62,0,0,0,130.64,149.13Z"/><path class="cls-2" d="M129.39,158.42c0-.48,0-.91.57-1.09C129.89,157.75,129.93,158.23,129.39,158.42Z"/><path class="cls-2" d="M130.45,146c-.3-.19-.31-.41,0-.64l.42.58Z"/><path class="cls-2" d="M130,156.93c-.32-.33-.06-.38.2-.43A.39.39,0,0,1,130,156.93Z"/><path class="cls-1" d="M125.73,129.77a4.7,4.7,0,0,0,2-.27,1.7,1.7,0,0,1,1.4.07c0,.15,0,.29,0,.44h0c-.67.19-1.36.33-1.71,1h0c-.46-.08-.76.29-1.14.43-.92.34-1,.79-.14,1.5v.37c-.67.07-.11,1-.78,1.08a11.45,11.45,0,0,1-.39-2.79c0-.37,0-.82-.51-.88v0c.67.22.7-.36.92-.71Z"/><path class="cls-2" d="M129.18,130c0-.15,0-.29,0-.44.78-.69,1.5-1.38.69-2.51-.16-.23.06-.46.18-.67,1,.58.6,1.55.52,2.32A1.38,1.38,0,0,1,129.18,130Z"/><path class="cls-2" d="M126.18,133c-.82-.71-.78-1.16.14-1.5.38-.14.68-.51,1.14-.43C127.1,131.72,126.31,132.12,126.18,133Z"/><path class="cls-2" d="M127.46,131c.35-.69,1-.83,1.71-1C128.89,130.84,128.17,130.93,127.46,131Z"/><path class="cls-13" d="M124.91,139.67a2.14,2.14,0,0,0-.45,2.53c.16.16.33.33.26.52-.49,1.14.15,2.34-.19,3.5-.26.86-.16,1.49,1,1.77a14.3,14.3,0,0,0,2.67.82c.8.05.89.51.33,1.1a9.85,9.85,0,0,0-1.57,2.21c-.31.62-.73,1.06-1.49.57-.11-.07-.31-.13-.38-.08-1.39,1-3.4,1.08-4.23,2.88-.1.24-.33.52-.54.29-.57-.57-1-.13-1.53.06-1.3.49-1.93.21-2.2-1.13a1,1,0,0,0-.57-.8c-1.36-.74-1.44-1.45-.49-2.59a24.48,24.48,0,0,0,4.29-6.14,1.43,1.43,0,0,0,0-1.49c-.28-.41,0-.81.09-1.2a10.83,10.83,0,0,0,.84-4.08c.68-.79,1.38-1.55,2-2.37a1.25,1.25,0,0,1,1.56-.57Z"/><path class="cls-7" d="M118.66,138.25c1.74-1.1,2.66-2.88,3.81-4.48.58-.81.88-1.83,1.76-2.41,0,.38,0,.77.08,1.16-.73,0-.76.72-1.08,1.12-1.17,1.47-1.76,3.37-3.36,4.52l-.44.43a.7.7,0,0,0-.6.42l-.42.42-4.49,5c-1,.66-1.67,1.69-2.6,2.43l-.35-.34.67-.79c1.33-1.51,3-2.71,4.15-4.36a.16.16,0,0,0,.1-.08,8.58,8.58,0,0,0,1.73-2.06Z"/><path class="cls-15" d="M119.87,138.16c1.6-1.15,2.19-3,3.36-4.52.32-.4.35-1.1,1.08-1.12,0,1,0,2,0,2.95a1.25,1.25,0,0,0-1.56.57c-.65.82-1.35,1.58-2,2.37C120.43,138.38,120.08,138.5,119.87,138.16Z"/><path class="cls-1" d="M125.41,134.7a2.37,2.37,0,0,1,0,2A2.15,2.15,0,0,1,125.41,134.7Z"/><path class="cls-14" d="M127.48,143.88c1.17.05,1.36.51.82,1.9A5.11,5.11,0,0,1,127.48,143.88Z"/><path class="cls-4" d="M108.31,170.6l-.62-.84a10.48,10.48,0,0,1,4.14-1c.74-.09.33.57.34.88.5.17.58-.4,1-.39,0,.59.17,1,.94.45,0,.73-1,1.24,0,1.81.41.22.55.32.94,0,.63-.45,1.14-1.18,2-1.14l-1.69,1.88a2.81,2.81,0,0,0-1,.48c-.51.3-.87.24-.87-.46a6.44,6.44,0,0,0-1-1.56c-.63-.59-.91-.52-1.31.08-.29.17-.52.16-.62-.21.38-.22.86-.32,1-.93-.79,0-1.56-.22-2.26.3C108.9,170,108.62,170.32,108.31,170.6Z"/><path class="cls-10" d="M111.27,170.81c.4-.6.68-.67,1.31-.08a6.44,6.44,0,0,1,1,1.56c-.15-.07-.32-.2-.47-.18C112.07,172.27,111.56,171.7,111.27,170.81Z"/><path class="cls-10" d="M109.37,170c.7-.52,1.47-.28,2.26-.3-.12.61-.6.71-1,.93C110.1,170.64,109.79,170.2,109.37,170Z"/><path class="cls-5" d="M127.89,141.36l.08,0-.08-.05Z"/><path class="cls-7" d="M140.74,51.49h-.44L140.07,50l0-.82c0-.2.07-.38.3-.45C141,49.6,140.48,50.59,140.74,51.49Z"/><path class="cls-13" d="M69.37,106.13c-.08-.15-.15-.31-.22-.47a2.46,2.46,0,0,0,.25-1,26.35,26.35,0,0,0-1.27-7.52c-.1-.38-.34-.39-.62-.39.18-1.7-.39-3.38-.07-5.08l.08-.35c.67-.51.36-1.13.21-1.73.12-.48-.07-1,.18-1.46,1-.34,1.1-1.14,1-2,0-.53-.15-1-.84-1l-.14,0a10.89,10.89,0,0,1-.06-2.91,1.84,1.84,0,0,0,0-2.73l-.07-.83c.35-.26.21-.64.24-1,.08-1.16-.28-2.38.57-3.44a.83.83,0,0,0-.08-.9c-.75-1.2-.24-2.17.6-3,.32-.34.69-.68.68-1.14,0-1.82,1.21-2.88,2.34-4a6.08,6.08,0,0,0,.8-1c1.08-1.62,2.72-2.61,4.16-3.85.3.44,0,.69-.1,1s-.55.52-.2.8.62-.14.86-.36A78.48,78.48,0,0,0,84.11,55c.41-.5.94-1.16.53-1.8s-.14-1.29.23-1.88,1-1.12,1-2c0-.36.31-.6.68-.69A12.17,12.17,0,0,1,90,47.92c.29,0,.57,0,.64-.37l.63,0a3.57,3.57,0,0,1-1.16,3.4A4,4,0,0,0,89,53.44a2.63,2.63,0,0,1-.22.8c-.91,1.58-1,3.6-2.51,4.86-.2.16-.26.49-.38.75a13.69,13.69,0,0,1-1.34,2.35c-1.06,1.45-2.81,2.47-2.9,4.57,0,.4-.29.77,0,1.17s.81.28,1.24.19l0,.53c-.39.83-.58,1.91-1.23,2.43A1.81,1.81,0,0,0,81,72.76c-.33.13-.74-.05-1,.26l-.63.11a.28.28,0,0,0-.43.08l-.41.11a12.24,12.24,0,0,0-4.14,1.45L73,75c-.26-.12-.4,0-.5.24a1.42,1.42,0,0,0-.82.81,1.44,1.44,0,0,0-.53,2.15l-.29.62a.41.41,0,0,0-.35.46.19.19,0,0,0-.08.15.44.44,0,0,0-.35.48.19.19,0,0,0-.08.15.75.75,0,0,0-.37.69.12.12,0,0,0-.06.13c-.49.42-.43,1-.51,1.56l-.08.41a.48.48,0,0,0-.11.65,1.37,1.37,0,0,0,.07,1c.23.61.48.3.73,0a.55.55,0,0,1,.18,0l.4.15h0a4.92,4.92,0,0,1,.21,1.53c0,.44.13.75.62.79v2.31c-.27.21-.27.42,0,.63v.42c.36,2.22.71,4.44,1.08,6.66,0,.2.21.26.39.29v.42c-.32.33-.06.37.2.42l.22,1.89c.07,1.55-.15,3.21.66,4.59a26.12,26.12,0,0,1,1.68,3.88,54.11,54.11,0,0,0,4.58,10.18c1,1.54,2.12,3,3.18,4.5v.21a26.72,26.72,0,0,0,3.23,5.22.81.81,0,0,0,.77.24v.27c-.12.66.31.92.8,1.17a47.85,47.85,0,0,0,7,2.73,6.81,6.81,0,0,0-1.47,2.6c0,.46-.17,1,.63,1.05.59,0,.38.57.4.91s0,.64-.37.66c-1.09.06-2.2.44-3.29-.11-.39-.19-.83-.42-1.06.31-.14.44-.46.17-.76,0-2.11-1.11-3.78-2.94-6.19-3.62-.87-.25-1.23-.35-1.41.58a44.56,44.56,0,0,1-4.33-7c-1.56-2.74-2.68-5.69-4.08-8.5a20.93,20.93,0,0,1-1.65-6.6,52.06,52.06,0,0,0-1.88-7Z"/><path class="cls-14" d="M82.86,68.13c-.43.09-.88.29-1.24-.19s0-.77,0-1.17c.09-2.1,1.84-3.12,2.9-4.57a13.69,13.69,0,0,0,1.34-2.35c.12-.26.18-.59.38-.75,1.55-1.26,1.6-3.28,2.51-4.86a2.63,2.63,0,0,0,.22-.8,4,4,0,0,1,1.16-2.53,3.57,3.57,0,0,0,1.16-3.4,1.33,1.33,0,0,0,0-.2l.62-.05.85,0v.22c.76,1-.56,2.17.33,3.15,0,0-.13.31-.25.41-1.49,1.34-1.74,3.28-2.11,5-.52,2.46-1.21,4.7-3.17,6.39-.37.31-.62.65-.33,1.17a1,1,0,0,1-.49,1.46c-.52.26-.51.59-.27,1Z"/><path class="cls-8" d="M91.28,47.31a1.33,1.33,0,0,1,0,.2l-.63,0a6.22,6.22,0,0,0-1.67.05,71.84,71.84,0,0,0-7.23,1.76,23.86,23.86,0,0,0-8.88,4.43c-.24.18-.28.47-.4.72-.73,1.51-1.39,3-2.25,4.49a3.75,3.75,0,0,0-.62,2.67c.41,2.35-.38,4.62-.42,6.94a3.83,3.83,0,0,1-.72,1.83,4.3,4.3,0,0,0-.92,2.83,22.32,22.32,0,0,1,.16,2.82,7.24,7.24,0,0,0,.19,2.58c0,.27,0,.55.07.83,0,.91,0,1.82,0,2.73A10.89,10.89,0,0,0,68,85.13c-.77.09-.3.84-.66,1.21a.84.84,0,0,1-.21-1,9.44,9.44,0,0,0,.26-2.51,7.72,7.72,0,0,0-.3-3.39A6.7,6.7,0,0,1,67,76.21a2.4,2.4,0,0,0-.08-1.65c-.9-1.69.07-3,.91-4.29a3.8,3.8,0,0,0,.87-2.08c-.14-2,.69-3.94.46-5.93A8.68,8.68,0,0,1,70.55,57a6,6,0,0,0,.6-1.22c.63-2.23,2.43-3.27,4.27-4.3A32.36,32.36,0,0,1,90.2,47.1C90.56,47.08,91,46.94,91.28,47.31Z"/><path class="cls-8" d="M134.27,90.11c-.23.23-.56.32-.54.79.06,1.19,0,2.38,0,3.9.4-.83.69-.76,1.09-.32a7.75,7.75,0,0,1,1.89,5.62,1,1,0,0,1-.31.64,8.59,8.59,0,0,0-2.36,2.76s-.19,0-.3,0a11.58,11.58,0,0,1,.45-3.41c.17-1,.48-2.22-.22-2.94-1.16-1.18-.74-2.49-.61-3.69s-.72-2.44-.43-3.71l.24-.77c.49,0,.6-.54,1.05-.64C134.6,89,133.22,89.59,134.27,90.11Z"/><path class="cls-13" d="M133.19,89l-.24.77c-.37-.43-.18-.94-.2-1.42a3.73,3.73,0,0,0-.65-2.63c-.43-.5-.34-1.46-.4-2.21a9.21,9.21,0,0,0-.21-2c-.51-1.83,0-3.6.29-5.37.14-.76.25-1.43-.42-2a1.19,1.19,0,0,1-.17-1.46c.75-1.69.06-3.29-.64-4.69-.58-1.14-1.49-2.2-2.09-3.36s-.87-2.3-1.5-3.4c-.34-.59.06-1.33.3-2h.21c0,.13,0,.27,0,.41a2.39,2.39,0,0,0,.12,1.54,36,36,0,0,0,1.92,4.31,25.78,25.78,0,0,1,2.08,3.85c.57,1.69-.41,3.58.84,5.1.08.1,0,.35,0,.52a21.06,21.06,0,0,0-.32,8.33c.1.73-.21,1.67.71,2.17.12.44.25.88.38,1.32a.35.35,0,0,0,.12.44v.41a.3.3,0,0,0-.1.44Z"/><path class="cls-8" d="M132.84,85.52c-.92-.5-.61-1.44-.71-2.17a21.06,21.06,0,0,1,.32-8.33c.05-.17.11-.42,0-.52-1.25-1.52-.27-3.41-.84-5.1a25.78,25.78,0,0,0-2.08-3.85,36,36,0,0,1-1.92-4.31,2.39,2.39,0,0,1-.12-1.54c.11.08.29.14.31.24A19.32,19.32,0,0,0,131,67c1,1.52,1,3.28,1.49,5s0,3.6.08,5.38C132.67,80.08,132.57,82.8,132.84,85.52Z"/><path class="cls-15" d="M63.05,95.7a16.57,16.57,0,0,1,.46-6.31,2.31,2.31,0,0,1,2.08.07,1,1,0,0,0,.37.81c.24.23.31.46,0,.65-1.31-.2-1.9.2-2.07,1.48a10.38,10.38,0,0,0,0,3.29Z"/><path class="cls-9" d="M67.44,91.67c-.32,1.7.25,3.38.07,5.08a20.4,20.4,0,0,0,.35,2.8c0,.36.31.87-.37,1-.34-.53-.1-1.18-.38-1.72,0-.43.12-.9-.27-1.25-.6-1.72-.11-3.48-.2-5.22.24-.17.19-.45.26-.68Z"/><path class="cls-8" d="M125.22,53.53a.2.2,0,0,0-.09-.13.53.53,0,0,0-.31-.52l-.45-.59a4.23,4.23,0,0,0-2.8-1.28l-.31,0c-.11-.08-.2-.22-.32-.24-2-.44-3.84-1.57-5.89-2a3.91,3.91,0,0,1,3,.36,33.71,33.71,0,0,0,5.49,1.92c.13,0,.33,0,.4.06a13.19,13.19,0,0,1,3.13,4c-.13-.08-.26-.16-.4-.23l-.21-.23A3.48,3.48,0,0,0,125.22,53.53Z"/><path class="cls-8" d="M92.75,47.3l-.85,0a4.53,4.53,0,0,1,2.66-.8c2.57-.17,5.13.28,7.7.21a6.48,6.48,0,0,0,1.86-.16c.31-.1.72-.18.84.32a34.73,34.73,0,0,1-7.49.14C95.9,46.86,94.28,46.57,92.75,47.3Z"/><path class="cls-13" d="M92.75,47.3c1.53-.73,3.15-.44,4.72-.33a34.73,34.73,0,0,0,7.49-.14l.82.07v.21c-.57.39-1.22.09-1.82.21a27.3,27.3,0,0,1-6.45.12,18,18,0,0,0-4.75.08Z"/><path class="cls-13" d="M115.05,48.79c2,.38,3.86,1.51,5.89,2,.12,0,.21.16.32.24l-.73.12a2.94,2.94,0,0,1-.91-.18A19.54,19.54,0,0,0,113.9,49a6.58,6.58,0,0,1-2.64-1l.23-.14.4.08a.33.33,0,0,0,.44.11l1,.31a1.3,1.3,0,0,0,1.08.33Z"/><path class="cls-8" d="M133.14,34.25c.51,1,1.09,2,0,3.17-.57.62-.1,1.67-.23,2.52-.55-.45-1-2.08-.49-2.6.67-.7.46-1.45.52-2.21C133,34.82,132.86,34.49,133.14,34.25Z"/><path class="cls-12" d="M68.12,85.17c.69,0,.82.42.84,1,.05.87-.07,1.67-1,2-.22-.29.06-.57,0-.86a.44.44,0,0,0,0-.63Z"/><path class="cls-9" d="M62,35.79l1.45,0c0,.07,0,.15,0,.23s-.19.22-.3.25c-1.44.33-1.46.35-1.17,1.7a1.13,1.13,0,0,1-.1.13C60.82,37.37,60.83,36.92,62,35.79Z"/><path class="cls-12" d="M66.9,91.68c-.07.23,0,.51-.26.68l-.72-1.44c.35-.19.28-.42,0-.65a1,1,0,0,1-.37-.81C66.87,89.7,67,90.61,66.9,91.68Z"/><path class="cls-13" d="M107.49,47l.61.11a4.06,4.06,0,0,0,2.13.5l.61.11v.21a.5.5,0,0,1-.45.2c-1.37-.13-2.65-.7-4-.73,0,0-.09-.17-.14-.26Z"/><path class="cls-7" d="M136.59,87.78a2.72,2.72,0,0,1-2,1.78A2.84,2.84,0,0,1,136.59,87.78Z"/><path class="cls-8" d="M127.47,59.29h-.21c0-.34-.08-.68-.13-1a1,1,0,0,0,0-.89l0-.59c0-.22.09-.44.14-.66A3.82,3.82,0,0,1,127.47,59.29Z"/><path class="cls-8" d="M110.23,47.61a4.06,4.06,0,0,1-2.13-.5A2,2,0,0,1,110.23,47.61Z"/><path class="cls-13" d="M127.32,56.12c0,.22-.1.44-.14.66a2.54,2.54,0,0,1-.56-1.89c.14.07.27.15.4.23Z"/><path class="cls-8" d="M140.07,50l.23,1.49C139.33,51,139.29,50.78,140.07,50Z"/><path class="cls-8" d="M107.49,47l-1.28.14-.43,0V46.9C106.37,46.58,107,46.42,107.49,47Z"/><path class="cls-8" d="M67.73,89.59c.15.6.46,1.22-.21,1.73C67.58,90.74,67.28,90.12,67.73,89.59Z"/><path class="cls-8" d="M54.87,86.43a5.09,5.09,0,0,1,.62-1.68C55.6,85.43,55.67,86.09,54.87,86.43Z"/><path class="cls-8" d="M138.4,44.55c0,.36.12.74-.16,1.06C137.92,45.2,137.77,44.82,138.4,44.55Z"/><path class="cls-8" d="M114.44,48.7a1.3,1.3,0,0,1-1.08-.33C113.85,48.07,114.18,48.25,114.44,48.7Z"/><path class="cls-9" d="M119.46,27.23c.45-.28.83-.25,1.1.25C120.18,27.47,119.74,27.69,119.46,27.23Z"/><path class="cls-8" d="M68,86.64a.44.44,0,0,1,0,.63C67.65,87.05,67.66,86.83,68,86.64Z"/><path class="cls-9" d="M62.81,38.55l-.47,0c0-.26-.27-.24-.39-.37a1.13,1.13,0,0,0,.1-.13C62.37,38.1,62.9,37.89,62.81,38.55Z"/><path class="cls-8" d="M110.84,47.93v-.21c.3-.32.52-.27.65.15l-.23.14Z"/><path class="cls-8" d="M133.34,87.28a.35.35,0,0,1-.12-.44C133.5,86.92,133.67,87,133.34,87.28Z"/><path class="cls-7" d="M138.2,87.07a.31.31,0,0,1-.45.14C137.83,87,137.94,86.78,138.2,87.07Z"/><path class="cls-8" d="M133.25,88.13a.3.3,0,0,1,.1-.44C133.64,87.91,133.52,88,133.25,88.13Z"/><path class="cls-8" d="M133,33.19a.4.4,0,0,1,.15.44C132.85,33.56,132.62,33.48,133,33.19Z"/><path class="cls-12" d="M63.52,36.05c0-.08,0-.16,0-.23.17-.09.32-.09.42.12C63.82,36.12,63.66,36.06,63.52,36.05Z"/><path class="cls-8" d="M112.33,48.06a.33.33,0,0,1-.44-.11C112.13,47.62,112.25,47.78,112.33,48.06Z"/><path class="cls-12" d="M62,38.13c.12.13.4.11.39.37a1.63,1.63,0,0,1-1.15-.39,1.34,1.34,0,0,1-.58-1.62,1.09,1.09,0,0,1,1.42-.7C60.83,36.92,60.82,37.37,62,38.13Z"/><path class="cls-15" d="M61.18,92.07a1.3,1.3,0,0,1,.26-.31c.31-.19.6-.62,1-.42s0,.62,0,.94c0,1-.06,2-.1,3-1.09-.25-.75-1.24-.94-1.92C61.31,93,61.41,92.48,61.18,92.07Z"/><path class="cls-2" d="M82.18,139.9a9.19,9.19,0,0,0-.18,2.51c-.46.4-.2,1-.3,1.46-.46,2.16-2,3.37-3.76,4.34a36.4,36.4,0,0,1-3.5,1.54c0-.83.54-1.54.54-2.41a1.42,1.42,0,0,1,1.43-.79.87.87,0,0,0,1-.43,2.05,2.05,0,0,1,1.81-1c.85,0,1.21-.42,1.6-1.34.58-1.4.38-2.77.58-4.14Z"/><path class="cls-3" d="M63.05,95.7h.85a13.53,13.53,0,0,1,.92,6,4.92,4.92,0,0,0,.19,2.55c-.1.47,0,.75.58.72l.85.86c0,.17,0,.41.09.49,1,.87.28,1.52-.25,2.21-.16,0-.32-.19-.47,0h0a.17.17,0,0,0,.09-.25c-.16-.3-.25-.69-.74-.58l0,0c.3-.35,0-.58-.18-.82a13.88,13.88,0,0,1-1.89-8.16A28,28,0,0,0,63.05,95.7Z"/><path class="cls-3" d="M78.66,159h.62v.23c-.34-.12-.86.62-1-.23h.43Z"/><path class="cls-6" d="M77.59,159.71l.08,0-.11.08s0,0,0-.06S77.57,159.72,77.59,159.71Z"/><path class="cls-10" d="M66.84,109.5a2.7,2.7,0,0,0,1.34,2.18,3.37,3.37,0,0,0,1.82.7c.18,1.17.71,2.29.45,3.51-.63-1.23-1.85-2-2.57-3.15-.18-.29-.63-.22-1-.26a.47.47,0,0,0-.42-.42c-.35-.81-.72-1.62-1-2.44-.16-.41-.56-.79-.26-1.31h.21c.1.14.15.38.42.21h0c-.07.34,0,.5.41.42h0c0,.46.12.72.64.53Z"/><path class="cls-7" d="M65.39,108.32h-.21c0-.2-.3-.39,0-.61.49-.11.58.28.74.58Z"/><path class="cls-1" d="M118.83,139a.7.7,0,0,1,.6-.42c.34.22.23.56.25.87C119.33,139.44,118.89,139.58,118.83,139Z"/><path class="cls-16" d="M92.52,148.16a4,4,0,0,1-2.11-.86c.21-1.19,1.33-1.27,2.14-1.68.4-.21,1-.1,1-.78a1.14,1.14,0,0,0-.83-1.17,3.91,3.91,0,0,0-.42-2.1.91.91,0,0,1,1-.85c.24,0,.56.05.64-.23.31-1,1.09-1.7,1.33-2.7.32-1.34.68-2.66,2.23-3.16.65-.21.74-.77.68-1.37,1,0,2.11,0,3.16,0a17.5,17.5,0,0,0,4.57-.49,16.81,16.81,0,0,0,5.74-3l-.22,1.05a1.67,1.67,0,0,0-1,1.69,1.66,1.66,0,0,0-1.77,1,1.18,1.18,0,0,0,.24,1.45c.5.39.84.92,1.32,1.31v.42a2.59,2.59,0,0,0-.85,1.5,3.22,3.22,0,0,1-1.47,2.19,6.42,6.42,0,0,0-3.14,3.37c-.2.46-.43.56-1,.55-1.37,0-2.72-.22-4.07-.29s-3,.72-4.26-.48a.46.46,0,0,0-.72.17.76.76,0,0,0,.11.88c1,1.42.75,1.93-1,2.24C93.19,147,92.26,147,92.52,148.16Z"/><path class="cls-3" d="M110.21,136.73v-.42c.49-.68-.16-1-.45-1.41-.67-1-.47-1.5.66-1.75,1.24.72,1.13,2.21,1.32,3.23a5,5,0,0,1-.94,3.62,2,2,0,0,0-.54,1.63c.17.64-.12,1-.49,1.34a8.61,8.61,0,0,0-1.58,2.07.73.73,0,0,0,0,.8c.16.2.38.09.57,0a14,14,0,0,0,4.88-3.54,2,2,0,0,1,2.12-.9c-1.17,1.65-2.82,2.85-4.15,4.36l-.67.79c-2.93,2.39-6.44,2.72-10,2.8-.17-.74-1.08-1.56.33-2.1.2-.08-.08-.4-.37-.43-.65-.07-1.31-.11-2-.24-.37-.08-1.08-.28-.8-.68s.66-1.19,1.46-1.19c1.64,0,3.28,0,4.92.06a3.42,3.42,0,0,0,2.77-1.57c.47-1,.8-2.08,2.06-2.39a.78.78,0,0,0,.54-.92C109.54,138.77,110.06,137.78,110.21,136.73Z"/><path class="cls-14" d="M98.22,133.26c.06.6,0,1.16-.68,1.37-1.55.5-1.91,1.82-2.23,3.16-.24,1-1,1.73-1.33,2.7-.08.28-.4.23-.64.23a.91.91,0,0,0-1,.85c-.07,0-.16,0-.2,0-1.15-1.11-1.16-1.12-1.7.51-.09.26-.2.37-.44.22-1.49-.92-3.31-.37-4.84-1.1a31.7,31.7,0,0,1-3.81-5.66c.18-.93.54-.83,1.41-.58,2.41.68,4.08,2.51,6.19,3.62.3.16.62.43.76,0,.23-.73.67-.5,1.06-.31,1.09.55,2.2.17,3.29.11.35,0,.4-.37.37-.66s.19-.87-.4-.91c-.8,0-.64-.59-.63-1.05a6.81,6.81,0,0,1,1.47-2.6Z"/><path class="cls-1" d="M110.21,136.73c-.15,1.05-.67,2-.3,3.17a.78.78,0,0,1-.54.92c-1.26.31-1.59,1.41-2.06,2.39a3.42,3.42,0,0,1-2.77,1.57c-1.64-.07-3.28,0-4.92-.06-.8,0-1.13.72-1.46,1.19s.43.6.8.68c.64.13,1.3.17,2,.24.29,0,.57.35.37.43-1.41.54-.5,1.36-.33,2.1a22,22,0,0,1-8.43-1.2c-.26-1.19.67-1.18,1.38-1.3,1.71-.31,1.95-.82,1-2.24a.76.76,0,0,1-.11-.88.46.46,0,0,1,.72-.17c1.31,1.2,2.84.4,4.26.48s2.7.26,4.07.29c.52,0,.75-.09,1-.55a6.42,6.42,0,0,1,3.14-3.37,3.22,3.22,0,0,0,1.47-2.19A2.59,2.59,0,0,1,110.21,136.73Z"/><path class="cls-13" d="M85.15,141.15c1.53.73,3.35.18,4.84,1.1.24.15.35,0,.44-.22.54-1.63.55-1.62,1.7-.51,0,0,.13,0,.2,0a3.91,3.91,0,0,1,.42,2.1.6.6,0,0,1-.78.62,3.81,3.81,0,0,0-3.28,1l.76.38c-.29.15-.71.06-.7.53A40,40,0,0,1,85.15,141.15Z"/><path class="cls-15" d="M66.84,109.5h0c-.08-.34-.14-.69-.64-.53h0c.17-.13.07-.29.06-.44.53-.69,1.29-1.34.25-2.21-.1-.08-.07-.32-.09-.49l1.27.72c.57.28.54-.57,1-.53a.74.74,0,0,1,0,.21s-.06.06,0,.07a1.1,1.1,0,0,0,.09.14l.84,2.53c-.24.92.51,1.77.23,2.7a2.32,2.32,0,0,1-2-1.14C67.5,110.15,67.42,109.59,66.84,109.5Z"/><path class="cls-14" d="M68.7,106c-.45,0-.42.81-1,.53a1.78,1.78,0,0,0,0-1.8c.37-.46.19-1,.11-1.46a12,12,0,0,1-.33-2.73c.68-.13.41-.64.37-1a20.4,20.4,0,0,1-.35-2.8c.28,0,.52,0,.62.39a26.35,26.35,0,0,1,1.27,7.52,2.46,2.46,0,0,1-.25,1C68.86,105.6,68.81,105.85,68.7,106Z"/><path class="cls-14" d="M88.75,146.21c0-.47.41-.38.7-.53l-.76-.38a3.81,3.81,0,0,1,3.28-1,.6.6,0,0,0,.78-.62,1.14,1.14,0,0,1,.83,1.17c0,.68-.63.57-1,.78-.81.41-1.93.49-2.14,1.68A5.43,5.43,0,0,1,88.75,146.21Z"/><path class="cls-13" d="M69.81,111.66c.28-.93-.47-1.78-.23-2.7a5.91,5.91,0,0,1,.78,2C70.47,111.37,70.39,111.73,69.81,111.66Z"/><path class="cls-14" d="M68.74,106.43a1.1,1.1,0,0,1-.09-.14s0-.05,0-.07Z"/><path class="cls-14" d="M69.37,106.13l0,.25C69.18,106.33,69.25,106.23,69.37,106.13Z"/><path class="cls-1" d="M113.92,144.47l4.49-5a9.76,9.76,0,0,1-1.63,3.89,33.29,33.29,0,0,0-1.92,3.88c-.27.65-.8.94-1.24,1.36a3.88,3.88,0,0,1-3,1.42c0-.48.4-.6.72-.78a7,7,0,0,0,3.19-3.67C114.75,145,114.7,144.48,113.92,144.47Z"/><path class="cls-2" d="M78.66,159h-.43C78.37,158.81,78.51,158.82,78.66,159Z"/><path class="cls-4" d="M115.79,141.41a2,2,0,0,0-2.12.9,14,14,0,0,1-4.88,3.54c-.19.08-.41.19-.57,0a.73.73,0,0,1,0-.8,8.61,8.61,0,0,1,1.58-2.07c.37-.39.66-.7.49-1.34a2,2,0,0,1,.54-1.63,5,5,0,0,0,.94-3.62c-.19-1-.08-2.51-1.32-3.23v-.63a1.67,1.67,0,0,1,1-1.69c.1,0,.24,0,.3-.09,1-1,1.27-1,2,.26,0,.06,0,.13.06.2s.16.43.41.37a.62.62,0,0,0,.32-.37c.35-1.48,1.42-2.65,1.49-4.29a8.39,8.39,0,0,0-2.56-6.44c-.72-.74-1.83-1.09-2.29-2.08-.93-2-2.08-4-1-6.28.52-.67.85-1.35.19-2.11l.24-.51c.63.08.61.53.63,1,.06,1.24.36,1.42,1.35.76a4.17,4.17,0,0,1,3.22-.54c1.27.26,1.48.13,1.92-1.1s.57-2.79,1.07-4.14a4.15,4.15,0,0,1,6.47-1.81,5.13,5.13,0,0,1,1.49,4.79,21.42,21.42,0,0,1-2.43,7.52,7.08,7.08,0,0,1-6.51,4.13c-1,0-1,.14-.59,1.1.94,2.07,1.82,4.27,1.51,6.54a25.28,25.28,0,0,1-1.9,7.26,23.87,23.87,0,0,0-1,2.42c-.07.21-.38.53,0,.72a.56.56,0,0,0,.67-.17c.84-1,1.46-.57,2,.27l-1,1c-.46,0-1-.22-1.25.4s-.33,1.11-.48,1.66A.16.16,0,0,1,115.79,141.41Z"/><path class="cls-4" d="M107.45,80.68c0,.14,0,.32-.07.4-1.66,1.8-2.4,4.22-4,6-.71.79-.06,1.51.38,2.15s1,.9,1.32,1.48c.19.32.52.45.75.06.4-.69,1-.61,1.66-.6,0,.34,0,.69-.07,1-.51.29-.39.7-.13,1s.17.69.61.6.25-.37.32-.59a.17.17,0,0,1,0-.15c.39-.26.4-.55.08-.88l0-.62a.4.4,0,0,0,.39-.23l1.24.1V91c-.39.4-.33.69.25.72a8.46,8.46,0,0,0,1.23-.07c.14.23.28.25.43,0,1.65.69,3.42.63,5.14.86.31,0,.73.08.78-.32s-.4-.47-.74-.51l-1.36-.17c-.17,0-.38-.07-.38-.27s.23-.32.45-.31l1.15.11a8.52,8.52,0,0,0,4.7-.69c.79-.41,1.58-.86,1.35-2,.07-.19.1-.44.35-.46.69-.07.88-.55,1-1.12.71.1,1.08,1,1.89.81a10.61,10.61,0,0,1,.22,1.86c-.07.49-.13.81-.78.51-1.39-.64-1.51-.59-2.35.72a10.79,10.79,0,0,0-.77,1.47c-.26.59.27,1.29,1.14,1.57,1.35.43,1.33.46.39,1.47a12.34,12.34,0,0,1-3.19,2.51,1.88,1.88,0,0,1-2.25-.17,2.12,2.12,0,0,0-1.57-.63c-.36,0-.77,0-.87-.44s.3-.66.64-.83.6-.22.87-.36.88-.42.64-.91a1,1,0,0,0-1.14-.57c-.37.08-.74.19-1.11.3-.21.06-.45.13-.54-.12-.3-.86-.57-.48-1.09-.12a3.2,3.2,0,0,1-2.75.38c-1.18-.36-2.39,0-3.56-.39-.51-.18-.74.43-.35.91,1.79,2.18,3.54,4.41,6.26,5.55a3,3,0,0,1,.56.29c.39.26,1.27.49,1.12.73-.37.58-.79,1.35-1.74,1.28a11.77,11.77,0,0,0-3.91.4,1.93,1.93,0,0,0-.68.43,5.82,5.82,0,0,1-1.32-1.79c0-.63,0-1.21-.88-1.12a.11.11,0,0,1-.13-.07c.06-.53-.27-.75-.68-.93a5.24,5.24,0,0,1-3-3.2,10.38,10.38,0,0,0-3.57-4.54A3.35,3.35,0,0,1,98.62,90c-.58-2.08-.32-4.21-.43-6.32-.08-1.56.19-2.8,1.81-3.4.48-.17.61-.49.27-.86-.64-.7-.19-1.21.39-1.32,1.59-.3,2.15-1.78,3.17-2.68A12.44,12.44,0,0,1,109,72.78a35.41,35.41,0,0,1,6-.75c.64-.06.46.36.55.64l-1.28.36c-.54-.3-1.09-.68-1.48.19a.45.45,0,0,1-.56.14,3.26,3.26,0,0,0-2.61.46l-1.47.69a5.91,5.91,0,0,0-4.47,3.08c-.42.11-1.15-.6-1.21.46s-.25,2.38.6,3.39c.37.72.61.28.87-.09.2.08.4.21.62,0l1-.26.42-.08C106.53,81.13,106.94,80.72,107.45,80.68Z"/><path class="cls-3" d="M115.52,72.67c-.09-.28.09-.7-.55-.64a35.41,35.41,0,0,0-6,.75,12.44,12.44,0,0,0-5.14,2.64c-1,.9-1.58,2.38-3.17,2.68-.58.11-1,.62-.39,1.32.34.37.21.69-.27.86-1.62.6-1.89,1.84-1.81,3.4.11,2.11-.15,4.24.43,6.32a3.35,3.35,0,0,0,1.21,1.82,10.38,10.38,0,0,1,3.57,4.54,5.24,5.24,0,0,0,3,3.2c.41.18.74.4.68.93-.32,0-.58.09-.64.46a8.42,8.42,0,0,1-3.29-1.5,6.32,6.32,0,0,0-1.45-1,3.7,3.7,0,0,1-2.41-3.4,2.15,2.15,0,0,0-.36-1.59c-.94-1.09-2.07-2.09-2.13-3.7,0-.06-.16-.12-.25-.18-.14-.49-.27-1-.41-1.47.59-.12.46-.57.35-.91a2,2,0,0,1,.15-1.49c.73-1.69.11-3.44,0-5.16a2.46,2.46,0,0,0-.7-2c-.31-.28,0-.8.51-1.07,1.3-.75,2.58-1.55,3.88-2.29a24.43,24.43,0,0,1,6.52-2.82,33.11,33.11,0,0,1,8.29-1.27c3,.08,6,.6,9,.92a9.15,9.15,0,0,0,1.57,0c.26,0,.58-.13.61-.48s-.3-.35-.46-.51c-.31-.32-.83-.19-1-.85a12.51,12.51,0,0,1-1-4.75,3,3,0,0,0-.34-1.41,18.63,18.63,0,0,1-1.73-5,4.74,4.74,0,0,0-1-2.57c-1-1.33-1.89-2.73-.79-4.47.18-.28.48-.53.48-.91l.73-.12.31,0,.22.49c-.9,1-.65,2.2-.63,3.37.38,2.06,1.61,3.87,1.86,6a7.6,7.6,0,0,0,1.11,3,3.81,3.81,0,0,1,.51,2.5,4.06,4.06,0,0,0,2,4.06c.79,0,.82,1,1.77,1.09-.54.21-1.22.09-.71.76s.36,1.56,1,2.17c.15.15.07.49-.15.65a1,1,0,0,1-1.09,0c-.71-.32-1.34-.91-2.22-.71l-.54-.61c0-.54-.46-.39-.77-.46-1-.78-2.1-.58-3.2-.43a4.87,4.87,0,0,1-2.92-.33,1.72,1.72,0,0,0-1,0Z"/><path class="cls-11" d="M124.67,73.83l.54.61a1.72,1.72,0,0,0,.64,1.8c-.08.3,0,.49.35.52a.71.71,0,0,1,.35.49c-.25.52-1,.84-.58,1.65.13.25-.23.37-.47.43a.13.13,0,0,1-.12-.09c-.44-.75-.73-1.73-2-1.23-.17.06-.41-.05-.61-.11a12.2,12.2,0,0,0-4.58-.24,4.17,4.17,0,0,0-2.56.65l-.18.15-.86-.06c-.19-.25-.32-.13-.44.08l-.71.24a.78.78,0,0,0-1,.5l-.27.13a1.16,1.16,0,0,0-1.2.46l-.63.06c-.19-.25-.32-.14-.42.09a1.43,1.43,0,0,1-.84.12c-.19-.25-.32-.14-.43.08l-.62.14c-.25-.27-.35-.11-.43.14l-.22.09a1.7,1.7,0,0,0-1.46.52l-.42.08c-.42-.23-.83-.41-1,.26-.22.17-.42,0-.62,0a7.27,7.27,0,0,1-.19-2.9c.57-.29,1.14-.67,1.18-1.33.08-1.21.93-1.49,1.83-1.6a1.5,1.5,0,0,0,1.39-1l1.47-.69c1,.09,2-.33,3.12-.19s1.92-.4,2.86-.34c.67,0,1-.09,1.18-.67a1.72,1.72,0,0,1,1,0c.13.48.76.71.63,1.35.26-.37.46-.64.93-.59a6,6,0,0,0,2.06-.17c.25-.06.73-.07.79,0,.44.91,1.12.33,1.71.34Z"/><path class="cls-9" d="M111.47,91.66a8.46,8.46,0,0,1-1.23.07c-.58,0-.64-.32-.25-.72a4.78,4.78,0,0,1,2.94.16,2,2,0,0,0,1.3.21c.34,0,.87.34.93-.18s-.52-.29-.84-.33a.33.33,0,0,0-.1,0,9.24,9.24,0,0,0-4.24-.35l-1.24-.1c-.07-.14-.2-.23-.32-.14s0,.24-.07.37l0,.62a.87.87,0,0,0-.08.88.17.17,0,0,0,0,.15c-1,.2-.6-.65-.8-1,0-.34.05-.69.07-1l.24-.85c.12,0,.19-.07.14-.21l.06-.22c.13,0,.21,0,.16-.19a11.52,11.52,0,0,1,8-4.34l1.14-.16.45,0h1a1.24,1.24,0,0,0,.87,0,17.22,17.22,0,0,1,5.66,2c.51.29,1.33.47,1.07,1.4-.81.14-1.18-.71-1.89-.81a12.35,12.35,0,0,0-12.83.05,2.66,2.66,0,0,0-1.85,1.4l1.88-1a13.92,13.92,0,0,1,4.41-.9l-1,1c-.42-.42-.8-.08-1.07.16s-.19.63,0,1a2.12,2.12,0,0,0,2,1.29,2.38,2.38,0,0,0,2.57-1.35c.26-.5.43-1.06,0-1.43a1,1,0,0,0-1.45.25,2,2,0,0,0-.21-1,.69.69,0,0,1,.68-.15A10.06,10.06,0,0,1,123,88.4c.23,1.12-.56,1.57-1.35,2a8.52,8.52,0,0,1-4.7.69L115.79,91c-.22,0-.45,0-.45.31s.21.25.38.27l1.36.17c.34,0,.8,0,.74.51s-.47.36-.78.32c-1.72-.23-3.49-.17-5.14-.86A.25.25,0,0,0,111.47,91.66Zm10.1-3.3c-.37-.42-.93-.41-1.38-.64s-1-.3-1.19.54a2.88,2.88,0,0,1-.68,1.47c-.2.09-.54.06-.48.41s.31.21.51.22a6,6,0,0,0,3.34-.92C122.31,89.1,122.31,88.64,121.57,88.36Zm-8,1.43c-.24-.66-.69-1.1-.78-1.7,0-.27-.23-.31-.47-.25a5,5,0,0,0-2.71,1.7Z"/><path class="cls-4" d="M126.63,70.44a4.06,4.06,0,0,1-2-4.06,3.81,3.81,0,0,0-.51-2.5,7.6,7.6,0,0,1-1.11-3c-.25-2.1-1.48-3.91-1.86-6,1.23-.08,1.56.88,1.92,1.72,1.16,2.75,1.35,5.73,2.06,8.58A29.29,29.29,0,0,0,126.63,70.44Z"/><path class="cls-4" d="M115.48,78.46l.18-.15a1.7,1.7,0,0,0,.92,0,16.73,16.73,0,0,1,4.79-.22,1.18,1.18,0,0,0,.41,1.12,1.13,1.13,0,0,1,.43.81c.16,1.39,0,1.55-1.34,1.06a30.57,30.57,0,0,1-4.66-1.71C115.85,79.12,115.4,79,115.48,78.46Z"/><path class="cls-9" d="M106.42,101c.06-.37.32-.45.64-.46a.11.11,0,0,0,.13.07,2.84,2.84,0,0,0,.88,1.12,5.82,5.82,0,0,0,1.32,1.79,11.63,11.63,0,0,0,.67,1,4.68,4.68,0,0,1,.59,5c-.09.17-.17.34-.25.51-.43.44-.85.91-1.32,1.32-.25.22-.61.51-.92.16s.1-.61.33-.83a4.4,4.4,0,0,0,1.7-2.55,3.66,3.66,0,0,0-.77-3c-.73-.93-1.43-1.89-2.15-2.84Z"/><path class="cls-9" d="M125.5,79.33c.24-.06.6-.18.47-.43-.43-.81.33-1.13.58-1.65a6.81,6.81,0,0,0,1.56,3.45.5.5,0,0,1,0,.68c-.26.24-.5.09-.75-.08A6.5,6.5,0,0,1,125.5,79.33Z"/><path class="cls-9" d="M121.37,78.05a16.73,16.73,0,0,0-4.79.22,1.7,1.7,0,0,1-.92,0,4.17,4.17,0,0,1,2.56-.65,12.2,12.2,0,0,1,4.58.24c.2.06.44.17.61.11,1.24-.5,1.53.48,2,1.23C124.07,78.75,122.84,78,121.37,78.05Z"/><path class="cls-9" d="M125.73,129.77l-.31.24-.83-.06a3.29,3.29,0,0,1,.92-1.67l.7.24C126.25,129,125.81,129.32,125.73,129.77Z"/><path class="cls-13" d="M121.79,51.5l-.22-.49a4.23,4.23,0,0,1,2.8,1.28C123.38,52.45,122.72,51.53,121.79,51.5Z"/><path class="cls-13" d="M125.22,53.53a3.48,3.48,0,0,1,1.19,1.13A1.11,1.11,0,0,1,125.22,53.53Z"/><path class="cls-8" d="M106,81.05a1.7,1.7,0,0,1,1.46-.52v.15C106.94,80.72,106.53,81.13,106,81.05Z"/><path class="cls-8" d="M124.59,130l.83.06c-.21.35-.24.93-.91.71C124.34,130.44,124.47,130.2,124.59,130Z"/><path class="cls-8" d="M111,79.81a1.16,1.16,0,0,1,1.2-.46A1.21,1.21,0,0,1,111,79.81Z"/><path class="cls-4" d="M119.47,84.24a1.24,1.24,0,0,1-.87,0C118.9,83.82,119.2,83.71,119.47,84.24Z"/><path class="cls-9" d="M112.51,79.22a.78.78,0,0,1,1-.5A1.44,1.44,0,0,1,112.51,79.22Z"/><path class="cls-13" d="M127.15,57.37a1,1,0,0,1,0,.89C126.74,58,126.73,57.66,127.15,57.37Z"/><path class="cls-8" d="M107.67,80.44c.08-.25.18-.41.43-.14A.39.39,0,0,1,107.67,80.44Z"/><path class="cls-4" d="M117.61,84.22l-.45,0C117.28,83.86,117.44,83.87,117.61,84.22Z"/><path class="cls-13" d="M124.82,52.88a.53.53,0,0,1,.31.52C124.82,53.35,124.73,53.18,124.82,52.88Z"/><path class="cls-9" d="M126.2,76.76c-.34,0-.43-.22-.35-.52A.61.61,0,0,1,126.2,76.76Z"/><path class="cls-9" d="M114.18,78.48c.12-.21.25-.33.44-.08A.35.35,0,0,1,114.18,78.48Z"/><path class="cls-8" d="M110,80c.1-.23.23-.34.42-.09A.34.34,0,0,1,110,80Z"/><path class="cls-8" d="M108.72,80.16c.11-.22.24-.33.43-.08A.33.33,0,0,1,108.72,80.16Z"/><path class="cls-14" d="M107.83,89.16c0,.14,0,.19-.14.21Z"/><path class="cls-15" d="M108.05,88.75c0,.14,0,.18-.16.19Z"/><path class="cls-8" d="M137,88.56a4.46,4.46,0,0,0,.41,2.85c.3.79.77,1.56.16,2.41h-.09l-.07,0a2.8,2.8,0,0,0-.41-1.62c.08.69,0,1.18.21,1.62a9.18,9.18,0,0,1-.53,2.34,13.72,13.72,0,0,0-2-3.81,1.64,1.64,0,0,1,.66-2.27c.62-.36.75.32,1.19.53C136.5,89.86,135.84,89,137,88.56Z"/><path class="cls-9" d="M138,99.27l.85.21a7.13,7.13,0,0,1-.92,2.62c-.18.28-.44.66-.82.43s-.14-.58,0-.84A7.47,7.47,0,0,0,138,99.27Z"/><path class="cls-12" d="M137.16,93.8c-.26-.44-.13-.93-.21-1.62a2.8,2.8,0,0,1,.41,1.62h-.2Z"/><path class="cls-15" d="M115.89,141.33c.15-.55.28-1.12.48-1.66s.79-.37,1.25-.4A8.58,8.58,0,0,1,115.89,141.33Z"/><path class="cls-15" d="M110.19,108.1a4.4,4.4,0,0,1-1.7,2.55c-.23.22-.69.43-.33.83s.67.06.92-.16c.47-.41.89-.88,1.32-1.32.66.76.33,1.44-.19,2.11-.72.14-1,1-1.85,1s-1.59.16-2.38.25-1.75-.1-2.22.31c-.73.62-1.76,1.09-2.07,2.07s-.16,2.29,1.38,2a1.91,1.91,0,0,1,1.31.28,2.52,2.52,0,0,0,1.9.25,2.34,2.34,0,0,1,1.87.33,12.41,12.41,0,0,0,2.52,1.44c1,.54,2.17.8,2.71,1.91a11.54,11.54,0,0,1,.87,2.24,5.66,5.66,0,0,1,.29,3.07c-.18.62-1,.21-1.36.57-.49-.25-.78.07-1.1.35a14.4,14.4,0,0,1-8.67,4c-4.5.3-9,.34-13.15-1.77a8.61,8.61,0,0,0-3.18-1.29v-.27a1.44,1.44,0,0,0-.43-.92,15.83,15.83,0,0,1-2.82-3.92c-.16-.3-.32-.63-.75-.62v-.21a4.26,4.26,0,0,0-1.2-2.93,39.89,39.89,0,0,1-3-5.46c-.92-1.8-1.83-3.6-2.71-5.41a9.9,9.9,0,0,1-1-3.6c0-.67.13-1.11,1-1a3.36,3.36,0,0,1,1.73.84c.85.72,1.75,1.27,2.93.62a2.15,2.15,0,0,1,1-.12,13.2,13.2,0,0,0,2.8-.31c.89-.17,1.77-.65,2.73-.32a12.28,12.28,0,0,1,0,1.36c-.28,1.92.72,3.41,1.59,5a3.58,3.58,0,0,0,1.05,1,.41.41,0,1,0,.56-.6,4.29,4.29,0,0,1-.53-.51c-1.63-2.12-2.64-4.5-1.09-6.88a6,6,0,0,0,3.08-1.4c.38-.28.94-.62.93-1.08,0-1.54.67-3,.44-4.53a29,29,0,0,0,2-3.41,3.77,3.77,0,0,0,.36-1.81c-.05-.55-.32-.65-.78-.46-.06-.2-.12-.39-.17-.59-.27-1.07-.07-1.36,1-1.43.44,0,.5-.44.77-.62.09.06.25.12.25.18.06,1.61,1.19,2.61,2.13,3.7a2.15,2.15,0,0,1,.36,1.59,3.7,3.7,0,0,0,2.41,3.4,6.32,6.32,0,0,1,1.45,1,8.42,8.42,0,0,0,3.29,1.5l.85,1.26c-.53.23-.29.56-.18,1,.44,1.5,1.66,2.59,2.1,4.09C109.33,107.73,109.54,108.18,110.19,108.1Zm-3.49.71h0a1.08,1.08,0,0,0,.73-1.33,1.42,1.42,0,0,0-1.27-1.22,4.17,4.17,0,0,0-3.4,1,2.78,2.78,0,0,0-1,.84,1.66,1.66,0,0,0-1.07,1.19c-.06.32.29.81.39.65.67-1.12,1.15-.21,1.74,0a.77.77,0,0,0,.87-.17l.4-.07A3.32,3.32,0,0,0,106.7,108.81Zm-12.89,2c.84.42,1.16-.1,1.37-1,.57.68.82,1.39,1.33,1.91a3,3,0,0,0,3.06.84c.27-.12.53-.28.5-.6s-.32-.37-.56-.29c-1.64.51-2.46-.47-3.15-1.71-.25-.46-.47-1-1-1.13l-.61-.4a4.42,4.42,0,0,0-2.52-1.36c-.58-.2-1.21-.28-1.58.36a1.25,1.25,0,0,0,.41,1.74,1.07,1.07,0,0,0,.6.63.48.48,0,0,0,.49.36.15.15,0,0,0,.13.06A1.55,1.55,0,0,0,93.81,110.82ZM96.42,120c-.08,0-.29,0-.5,0-3.47.6-6.26,2.52-9,4.62-.2.15-.38.38-.18.63a.47.47,0,0,0,.67,0c.67-.44,1.35-.88,2-1.38A17.91,17.91,0,0,1,95.25,121a3.66,3.66,0,0,1,2.48.12,4.8,4.8,0,0,0,3.48.11,5.77,5.77,0,0,1,4.32.11c2.28,1,4.72,1.57,7,2.55.31.14.79.48,1-.07s-.36-.62-.71-.75l-7.6-2.76a4.76,4.76,0,0,0-1.76-.22c-2.23,0-4.48,1-6.68-.13A1.75,1.75,0,0,0,96.42,120Zm-6.79,7.3A16.75,16.75,0,0,0,94,126.5a18.36,18.36,0,0,1,5-.81,70.24,70.24,0,0,0,7.54-.06c1.76-.15,3.53-.63,5.31-.1a.36.36,0,0,0,.45-.17.39.39,0,0,0-.1-.48,1.76,1.76,0,0,0-1.54-.47c-2.26.2-4.53.45-6.8.52-1.63.06-3.28-.05-4.91-.13a20.23,20.23,0,0,0-5,.85c-1.84.4-3.64,1-5.57.63-.26-.06-.53,0-.59.29s.2.41.42.52A4.12,4.12,0,0,0,89.63,127.26Z"/><path class="cls-15" d="M71.08,90.43V90c.26-.21.26-.42,0-.63V87.07c-.07-.58-.15-1.16-.22-1.74a.59.59,0,0,0-.61-.58h0l0-.49c.87-2.45,3-3.3,5.21-4a.37.37,0,0,0,.52-.22,2.26,2.26,0,0,1,1.47-.52,6.26,6.26,0,0,0,3.13,0,3.57,3.57,0,0,1,1.5.34c.5.16,1.08.34,1.49,0,.89-.85,1.68-.43,2.5.07a1.82,1.82,0,0,1-.17.91c-1.08,1.74-2.31,3.43-2.58,5.55l-2.19.15c-2.59.15-5,.66-6.74,2.85-.41.21-.31.35.06.45.84.1,1.15-.68,1.71-1,.4-.25.93-.82,1.32-.39.24.26-.43.64-.78.88a2.94,2.94,0,0,0-1.08,2.28c0,.62,1.19,1.07,2,1,2.24-.07,4.57.14,6.62-1.07a4.65,4.65,0,0,1,2.69-.6l-.21.94c-2,.28-3.83.88-5.75,1.32-.28.06-.58.18-.51.53s.42.29.69.28a4.4,4.4,0,0,0,.51,0c.43,1.27.27,1.75-.89,2.4-1.61.91-3.2,1.84-4.87,2.63-.92.43-1.75,1.15-2.85,1.14-.07-.63-.14-1.26-.22-1.89a.41.41,0,0,0-.2-.42v-.42c-.1-2.13-.7-4.17-1-6.27C71.57,90.83,71.52,90.45,71.08,90.43ZM83,84l-.07.17s.12.08.17.07,0-.11.08-.17Z"/><path class="cls-12" d="M67.89,78.66a7.24,7.24,0,0,1-.19-2.58,22.32,22.32,0,0,0-.16-2.82,4.3,4.3,0,0,1,.92-2.83,3.83,3.83,0,0,0,.72-1.83c0-2.32.83-4.59.42-6.94A3.75,3.75,0,0,1,70.22,59c.86-1.44,1.52-3,2.25-4.49.12-.25.16-.54.4-.72a23.86,23.86,0,0,1,8.88-4.43A71.84,71.84,0,0,1,89,47.59a6.22,6.22,0,0,1,1.67-.05c-.07.38-.35.4-.64.38a12.17,12.17,0,0,0-3.48.65c-.37.09-.71.33-.68.69.07.89-.57,1.38-1,2s-.75,1.1-.23,1.88-.12,1.3-.53,1.8a78.48,78.48,0,0,1-6.35,6.8c-.24.22-.48.67-.86.36s.08-.54.2-.8.4-.52.1-1c-1.44,1.24-3.08,2.23-4.16,3.85a6.08,6.08,0,0,1-.8,1c-1.13,1.13-2.35,2.19-2.34,4,0,.46-.36.8-.68,1.14-.84.87-1.35,1.84-.6,3a.83.83,0,0,1,.08.9c-.85,1.06-.49,2.28-.57,3.44C68.1,78,68.24,78.4,67.89,78.66Z"/><path class="cls-11" d="M75.41,80.28c-2.24.67-4.34,1.52-5.21,4a.46.46,0,0,0-.36.34.55.55,0,0,0-.18,0h-.73a1.37,1.37,0,0,1-.07-1c.38-.16.42-.38.11-.65,0-.14,0-.27.08-.41.57-.39.55-1,.51-1.56a.12.12,0,0,1,.06-.13c.44-.06.42-.37.37-.69a.19.19,0,0,1,.08-.15c.28,0,.39-.2.35-.48a.19.19,0,0,1,.08-.15c.27,0,.37-.2.35-.46s.19-.42.29-.62a12.06,12.06,0,0,1,.53-2.15,1.42,1.42,0,0,1,.82-.81A.39.39,0,0,0,73,75l1.33-.23a13,13,0,0,0,4.14-1.46l.41-.11c.2.25.33.13.43-.08l.63-.11c.58.19,1.15.36,1.68-.13a1,1,0,0,1,.81,0c.1.27.3.3.55.21l.3.13c0,.31.24.38.53.31a2.16,2.16,0,0,0,1.17-.2c1.26.64,2.35,1.55,3.63,2.18a4.49,4.49,0,0,1,2.6,2.69,8,8,0,0,0-1,2.53l-.37.2a.66.66,0,0,0-.65,0l-.44-.1a.25.25,0,0,0-.4-.07.88.88,0,0,0-.65-.14.27.27,0,0,0-.4-.12A3,3,0,0,0,86,79.9c-.82-.5-1.61-.92-2.5-.07-.41.39-1,.21-1.49,0a3.57,3.57,0,0,0-1.5-.34,6.76,6.76,0,0,0-3.13,0,2.26,2.26,0,0,0-1.47.52A.42.42,0,0,0,75.41,80.28Z"/><path class="cls-14" d="M73,100.11c1.1,0,1.93-.71,2.85-1.14,1.67-.79,3.26-1.72,4.87-2.63,1.16-.65,1.32-1.13.89-2.4l5-1.27a1.4,1.4,0,0,1-.91,1.59,21.09,21.09,0,0,0-2.26,1.31c-1.15.76-2.11,1.81-3.49,2.21-.24.07-.48.26-.45.52.14,1-.59,1.26-1.34,1.54a17,17,0,0,0-1.61.78c-.42.21-.5.38-.06.73a3.08,3.08,0,0,1,.85,2.51c0,.76.29.84.66,1a11.18,11.18,0,0,1,1.93.79.75.75,0,0,0,.69.13c1.62-.87,3.44-.8,5.17-1.14.69-.14,1.42-.54,2.13,0l-.61,1c-1-.33-1.84.15-2.73.32a13.2,13.2,0,0,1-2.8.31,2.15,2.15,0,0,0-1,.12c-1.18.65-2.08.1-2.93-.62a3.36,3.36,0,0,0-1.73-.84c-.91-.13-1.08.31-1,1a9.9,9.9,0,0,0,1,3.6c.88,1.81,1.79,3.61,2.71,5.41a39.89,39.89,0,0,0,3,5.46,4.26,4.26,0,0,1,1.2,2.93c-1.06-1.5-2.18-3-3.18-4.5a54.11,54.11,0,0,1-4.58-10.18,26.12,26.12,0,0,0-1.68-3.88C72.82,103.32,73,101.66,73,100.11Z"/><path class="cls-9" d="M82.86,68.13l3.61-2c1.21-.31,2.42-.69,3.64-.94,3.7-.76,7.45-.5,11.18-.69a38.22,38.22,0,0,1,12.09,1.64c.3.07.84,0,.72.54s-.6.41-1,.33a24.27,24.27,0,0,1-3.76-.92,12.26,12.26,0,0,0-4.33-.71c-2.55,0-5.11,0-7.66,0a28.65,28.65,0,0,0-9.89,1.52,4.91,4.91,0,0,0-1.85.67c-.91.38-1.63,1.24-2.76,1.09Z"/><path class="cls-9" d="M87.08,129.2a8.61,8.61,0,0,1,3.18,1.29c4.2,2.11,8.65,2.07,13.15,1.77a14.4,14.4,0,0,0,8.67-4c.32-.28.61-.6,1.1-.35-.05,1-1,1.29-1.49,1.9a16.81,16.81,0,0,1-5.74,3,17.5,17.5,0,0,1-4.57.49c-1,0-2.11,0-3.16,0l-3.36-.16a47.85,47.85,0,0,1-7-2.73C87.39,130.12,87,129.86,87.08,129.2Z"/><path class="cls-14" d="M82.88,68.66c1.13.15,1.85-.71,2.76-1.09a4.91,4.91,0,0,1,1.85-.67,3.94,3.94,0,0,1-.76,2.34c-.24.4-.49.88-.13,1.26,1,1.11.32,1.42-.68,1.67-.2,0-.37.24-.56.27-.65.09-.55.48-.39.9a2.16,2.16,0,0,1-1.17.2.5.5,0,0,0-.53-.31L83,73.1c-.13-.21-.29-.33-.55-.21a1,1,0,0,0-.81,0L81,72.76a1.81,1.81,0,0,1,.69-1.67C82.3,70.57,82.49,69.49,82.88,68.66Z"/><path class="cls-14" d="M83.07,123.47c.43,0,.59.32.75.62A15.83,15.83,0,0,0,86.64,128a1.44,1.44,0,0,1,.43.92.81.81,0,0,1-.77-.24A26.72,26.72,0,0,1,83.07,123.47Z"/><path class="cls-14" d="M71.08,90.43c.44,0,.49.4.52.68.25,2.1.85,4.14,1,6.27-.18,0-.36-.09-.39-.29C71.79,94.87,71.44,92.65,71.08,90.43Z"/><path class="cls-8" d="M78.46,73.32a13,13,0,0,1-4.14,1.46A12.05,12.05,0,0,1,78.46,73.32Z"/><path class="cls-12" d="M67.92,82.22c0-.91,0-1.82,0-2.73A1.84,1.84,0,0,1,67.92,82.22Z"/><path class="cls-14" d="M70.24,84.75a.59.59,0,0,1,.61.58c.07.58.15,1.16.22,1.74-.49,0-.66-.35-.62-.79A4.92,4.92,0,0,0,70.24,84.75Z"/><path class="cls-8" d="M71.67,76.06a12.06,12.06,0,0,0-.53,2.15A1.44,1.44,0,0,1,71.67,76.06Z"/><path class="cls-8" d="M81,72.76l.65.13c-.53.49-1.1.32-1.68.13C80.22,72.71,80.63,72.89,81,72.76Z"/><path class="cls-8" d="M69.56,80.89c0,.59.06,1.17-.51,1.56C69.13,81.9,69.07,81.31,69.56,80.89Z"/><path class="cls-14" d="M71.07,89.38c.27.21.27.42,0,.63C70.8,89.8,70.8,89.59,71.07,89.38Z"/><path class="cls-8" d="M69,82.86c.31.27.27.49-.11.65A.48.48,0,0,1,69,82.86Z"/><path class="cls-8" d="M70,80.07c.05.32.07.63-.37.69A.75.75,0,0,1,70,80.07Z"/><path class="cls-8" d="M68.93,84.56h.73C69.41,84.86,69.16,85.17,68.93,84.56Z"/><path class="cls-14" d="M72.55,97.8a.41.41,0,0,1,.2.42C72.49,98.17,72.23,98.13,72.55,97.8Z"/><path class="cls-14" d="M69.84,84.59a.46.46,0,0,1,.36-.34c0,.17,0,.33,0,.49Z"/><path class="cls-8" d="M79.3,73.13c-.1.21-.23.33-.43.08A.28.28,0,0,1,79.3,73.13Z"/><path class="cls-8" d="M73,75a.39.39,0,0,1-.5.24C72.59,75,72.73,74.89,73,75Z"/><path class="cls-8" d="M70.85,78.83c0,.26-.08.43-.35.46A.41.41,0,0,1,70.85,78.83Z"/><path class="cls-8" d="M70.42,79.44c0,.28-.07.45-.35.48A.44.44,0,0,1,70.42,79.44Z"/><path class="cls-16" d="M85,73.34c-.16-.42-.26-.81.39-.9.19,0,.36-.22.56-.27,1-.25,1.7-.56.68-1.67-.36-.38-.11-.86.13-1.26a3.94,3.94,0,0,0,.76-2.34,28.65,28.65,0,0,1,9.89-1.52c2.55,0,5.11,0,7.66,0a12.26,12.26,0,0,1,4.33.71,24.27,24.27,0,0,0,3.76.92c.37.08.86.17,1-.33s-.42-.47-.72-.54a38.22,38.22,0,0,0-12.09-1.64c-3.73.19-7.48-.07-11.18.69-1.22.25-2.43.63-3.64.94-.24-.42-.25-.75.27-1a1,1,0,0,0,.49-1.46c-.29-.52,0-.86.33-1.17,2-1.69,2.65-3.93,3.17-6.39.37-1.73.62-3.67,2.11-5,.12-.1.28-.38.25-.41-.89-1,.43-2.18-.33-3.15a18,18,0,0,1,4.75-.08,27.3,27.3,0,0,0,6.45-.12c.6-.12,1.25.18,1.82-.21l.43,0c.05.09.09.26.14.26,1.39,0,2.67.6,4,.73a.5.5,0,0,0,.45-.2l.42.08a6.58,6.58,0,0,0,2.64,1,19.54,19.54,0,0,1,5.72,1.89,2.94,2.94,0,0,0,.91.18c0,.38-.3.63-.48.91-1.1,1.74-.24,3.14.79,4.47a4.74,4.74,0,0,1,1,2.57,18.63,18.63,0,0,0,1.73,5,3,3,0,0,1,.34,1.41,12.51,12.51,0,0,0,1,4.75c.22.66.74.53,1,.85.16.16.49.21.46.51s-.35.46-.61.48a9.15,9.15,0,0,1-1.57,0c-3-.32-6-.84-9-.92a33.11,33.11,0,0,0-8.29,1.27,24.43,24.43,0,0,0-6.52,2.82c-1.3.74-2.58,1.54-3.88,2.29-.48.27-.82.79-.51,1.07a2.46,2.46,0,0,1,.7,2c.06,1.72.68,3.47,0,5.16a2,2,0,0,0-.15,1.49c.11.34.24.79-.35.91.1-.75-.28-1.46-.06-2.26a19.65,19.65,0,0,0,.39-3.08,1,1,0,0,0-.27-.86,6.74,6.74,0,0,0-3.54-1.59l-.3-.52c-.3-.59-1.1-.83-1.14-1.6a4.49,4.49,0,0,0-2.6-2.69C87.32,74.89,86.23,74,85,73.34ZM107.23,60v-.06h-2.51c-.27,0-.64,0-.7.29s.32.46.63.52a32.62,32.62,0,0,0,5.32.15c.29,0,.59-.1.59-.45S110.24,60,110,60C109.05,60,108.14,60,107.23,60Z"/><path class="cls-11" d="M67.71,104.74a1.78,1.78,0,0,1,0,1.8l-1.27-.72-.85-.86a1.58,1.58,0,0,0-.58-.72,4.92,4.92,0,0,1-.19-2.55,13.53,13.53,0,0,0-.92-6,10.38,10.38,0,0,1,0-3.29c.17-1.28.76-1.68,2.07-1.48l.72,1.44c.09,1.74-.4,3.5.2,5.22.07.47-.61.75-.33,1.28A5.88,5.88,0,0,0,67.71,104.74Z"/><path class="cls-15" d="M67.71,104.74a5.88,5.88,0,0,1-1.2-5.88l.6,0c.28.54,0,1.19.38,1.72a12,12,0,0,0,.33,2.73C67.9,103.78,68.08,104.28,67.71,104.74Z"/><path class="cls-12" d="M67.11,98.83l-.6,0c-.28-.53.4-.81.33-1.28C67.23,97.93,67.07,98.4,67.11,98.83Z"/><path class="cls-15" d="M65,104.24a1.58,1.58,0,0,1,.58.72C65.05,105,64.91,104.71,65,104.24Z"/><path class="cls-9" d="M66.28,108.52c0,.15.11.31-.06.44-.36.08-.48-.08-.41-.42S66.12,108.49,66.28,108.52Z"/><path class="cls-9" d="M65.39,108.32l.51,0a.17.17,0,0,1-.09.25C65.54,108.7,65.49,108.46,65.39,108.32Z"/><path class="cls-9" d="M66.22,109c.5-.16.56.19.64.53C66.34,109.68,66.2,109.42,66.22,109Z"/><path class="cls-3" d="M111.69,129.78c.51-.61,1.44-.92,1.49-1.9.39-.36,1.18.05,1.36-.57a5.66,5.66,0,0,0-.29-3.07,11.54,11.54,0,0,0-.87-2.24c-.54-1.11-1.74-1.37-2.71-1.91a12.41,12.41,0,0,1-2.52-1.44,2.34,2.34,0,0,0-1.87-.33,2.52,2.52,0,0,1-1.9-.25,1.91,1.91,0,0,0-1.31-.28c-1.54.25-1.72-.91-1.38-2s1.34-1.45,2.07-2.07c.47-.41,1.46-.23,2.22-.31s1.59-.23,2.38-.25,1.13-.87,1.85-1c-1.11,2.31,0,4.29,1,6.28.46,1,1.57,1.34,2.29,2.08a8.39,8.39,0,0,1,2.56,6.44c-.07,1.64-1.14,2.81-1.49,4.29a.62.62,0,0,1-.32.37c-.25.06-.35-.17-.41-.37s0-.14-.06-.2c-.71-1.26-1-1.3-2-.26-.06.07-.2.06-.3.09Z"/><path class="cls-1" d="M110.42,132.52v.63c-1.13.25-1.33.79-.66,1.75.29.41.94.73.45,1.41-.48-.39-.82-.92-1.32-1.31a1.18,1.18,0,0,1-.24-1.45A1.66,1.66,0,0,1,110.42,132.52Z"/><path class="cls-14" d="M111.48,86.87a12.35,12.35,0,0,1,12.83-.05c-.09.57-.28,1.05-1,1.12-.25,0-.28.27-.35.46a10.06,10.06,0,0,0-5.57-2.31.69.69,0,0,0-.68.15l-.82.09a13.8,13.8,0,0,0-4.4.9C111.5,87.11,111.49,87,111.48,86.87Z"/><path class="cls-8" d="M108.12,74.51a1.5,1.5,0,0,1-1.39,1c-.9.11-1.75.39-1.83,1.6,0,.66-.61,1-1.18,1.33l-.06-.64v-.22A5.91,5.91,0,0,1,108.12,74.51Z"/><path class="cls-8" d="M116.75,72.62c-.19.58-.51.71-1.18.67-.94-.06-1.89.47-2.86.34s-2.08.28-3.12.19a3.26,3.26,0,0,1,2.61-.46.45.45,0,0,0,.56-.14c.48-.14,1,.14,1.48-.19l1.28-.36Z"/><path class="cls-9" d="M103,81.44c-.85-1-.59-2.22-.6-3.39l.61,0c.43,1,.11,2,.41,3C103.53,81.31,103.23,81.38,103,81.44Z"/><path class="cls-14" d="M114.23,91.38a2,2,0,0,1-1.3-.21A4.78,4.78,0,0,0,110,91v-.49a9.24,9.24,0,0,1,4.24.35Z"/><path class="cls-12" d="M103,81.44c.19-.06.49-.13.42-.37-.3-1,0-2.07-.41-3l.61-.22.06.64a7.27,7.27,0,0,0,.19,2.9C103.65,81.72,103.41,82.16,103,81.44Z"/><path class="cls-14" d="M107.38,91.25c.2.4-.2,1.25.8,1-.07.22,0,.53-.32.59s-.44-.38-.61-.6S106.87,91.54,107.38,91.25Z"/><path class="cls-3" d="M114.24,73c-.46.33-1,0-1.48.19C113.15,72.35,113.7,72.73,114.24,73Z"/><path class="cls-3" d="M103.66,77.81l-.61.22-.61,0c.06-1.06.79-.35,1.21-.46Z"/><path class="cls-3" d="M108.07,101.68a2.84,2.84,0,0,1-.88-1.12C108.07,100.47,108.1,101.05,108.07,101.68Z"/><path class="cls-8" d="M104.53,81.39c.21-.67.62-.49,1-.26Z"/><path class="cls-14" d="M108.23,92.15a.87.87,0,0,1,.08-.88C108.63,91.6,108.62,91.89,108.23,92.15Z"/><path class="cls-14" d="M108.35,90.65c0-.13,0-.31.07-.37s.25,0,.32.14A.4.4,0,0,1,108.35,90.65Z"/><path class="cls-14" d="M111.47,91.66a.25.25,0,0,1,.43,0C111.75,91.91,111.61,91.89,111.47,91.66Z"/><path class="cls-14" d="M92.65,80.33a6.75,6.75,0,0,1,3.53,1.59,1,1,0,0,1,.27.86,19.65,19.65,0,0,1-.39,3.08c-.22.8.16,1.51.06,2.26.14.49.27,1,.41,1.47-.27.18-.33.59-.77.62-1.1.07-1.3.36-1,1.43,0,.2.11.39.17.59,0,2.14-1.32,3.66-2.51,5.24A1.43,1.43,0,0,1,91.94,96a17,17,0,0,0,.62-3.69,1.4,1.4,0,0,1,.51-1,3.76,3.76,0,0,0,.72-4.41c-.15-.41-.35-.81,0-1.16.63-.56.26-1.3.34-1.94,0-.4-.32-.72-.88-.56a3.7,3.7,0,0,1-3-.34,13.22,13.22,0,0,0-1.57-.55.67.67,0,0,0-1,.47c-.24.65-.47,1.31-.7,2s-.45.93-1.22.79c-.59-.1-1.37-.1-1.49.84H83.27c.27-2.12,1.5-3.81,2.58-5.55A1.82,1.82,0,0,0,86,79.9a3,3,0,0,1,1.25.6c.08.2.19.32.4.12a.88.88,0,0,1,.65.14c.11.18.23.25.4.07l.44.1c.21.33.43.33.65,0l.37-.2a.74.74,0,0,1,.68,0l.63.09.31.13c0,.1.06.2.07.3,0,.39.18.75.61.65s.26-.48.19-.77A1.43,1.43,0,0,1,92.65,80.33Z"/><path class="cls-8" d="M123.9,73.59c-.59,0-1.27.57-1.71-.34-.06-.12-.54-.11-.79,0a6,6,0,0,1-2.06.17c-.47-.05-.67.22-.93.59.13-.64-.5-.87-.63-1.35a4.87,4.87,0,0,0,2.92.33c1.1-.15,2.22-.35,3.2.43Z"/><path class="cls-9" d="M123.9,73.59v-.22c.31.07.74-.08.77.46Z"/><path class="cls-7" d="M117,87.28A1,1,0,0,1,118.4,87c.45.37.28.93,0,1.43a2.38,2.38,0,0,1-2.57,1.35,2.12,2.12,0,0,1-2-1.29c-.17-.41-.3-.76,0-1s.65-.58,1.07-.16a1.08,1.08,0,0,0,1.12,1C116.68,88.32,116.82,87.8,117,87.28Z"/><path class="cls-5" d="M118.32,89.73a2.88,2.88,0,0,0,.68-1.47c.18-.84.62-.83,1.19-.54s1,.22,1.38.64A2.51,2.51,0,0,1,118.32,89.73Z"/><path class="cls-5" d="M113.57,89.79l-4-.25a5,5,0,0,1,2.71-1.7c.24-.06.43,0,.47.25C112.88,88.69,113.33,89.13,113.57,89.79Z"/><path class="cls-11" d="M117,87.28c-.13.52-.27,1-.94,1a1.08,1.08,0,0,1-1.12-1l1-1,.82-.09A2,2,0,0,1,117,87.28Z"/><path class="cls-3" d="M118.32,89.73a2.51,2.51,0,0,0,3.25-1.37c.74.28.74.74.12,1.08a6,6,0,0,1-3.34.92c-.2,0-.47,0-.51-.22S118.12,89.82,118.32,89.73Z"/><path class="cls-12" d="M111.48,86.87c0,.12,0,.24,0,.36l-1.89,1A2.66,2.66,0,0,1,111.48,86.87Z"/><path class="cls-4" d="M114.23,91.38v-.51a.33.33,0,0,1,.1,0c.32,0,.89-.05.84.33S114.57,91.39,114.23,91.38Z"/><path class="cls-3" d="M110.19,108.1c-.65.08-.86-.37-1-.85-.44-1.5-1.66-2.59-2.1-4.09-.11-.39-.35-.72.18-1,.72,1,1.42,1.91,2.15,2.84A3.66,3.66,0,0,1,110.19,108.1Z"/><path class="cls-9" d="M96.42,120a1.75,1.75,0,0,1,.34,0c2.2,1.15,4.45.17,6.68.13a4.76,4.76,0,0,1,1.76.22l7.6,2.76c.35.13.86.29.71.75s-.66.21-1,.07c-2.29-1-4.73-1.53-7-2.55a5.77,5.77,0,0,0-4.32-.11,4.8,4.8,0,0,1-3.48-.11,3.66,3.66,0,0,0-2.48-.12,17.91,17.91,0,0,0-5.81,2.86c-.63.5-1.31.94-2,1.38a.47.47,0,0,1-.67,0c-.2-.25,0-.48.18-.63,2.69-2.1,5.48-4,9-4.62C96.13,120,96.34,120,96.42,120Z"/><path class="cls-9" d="M89.63,127.26a4.12,4.12,0,0,1-1.56-.17c-.22-.11-.48-.22-.42-.52s.33-.35.59-.29c1.93.4,3.73-.23,5.57-.63a20.23,20.23,0,0,1,5-.85c1.63.08,3.28.19,4.91.13,2.27-.07,4.54-.32,6.8-.52a1.76,1.76,0,0,1,1.54.47.39.39,0,0,1,.1.48.36.36,0,0,1-.45.17c-1.78-.53-3.55,0-5.31.1a70.24,70.24,0,0,1-7.54.06,18.36,18.36,0,0,0-5,.81A16.75,16.75,0,0,1,89.63,127.26Z"/><path class="cls-14" d="M93.32,97.91c.23,1.54-.49,3-.44,4.53,0,.46-.55.8-.93,1.08a6,6,0,0,1-3.08,1.4A6.93,6.93,0,0,1,90,102.64a2.08,2.08,0,0,0,1.47-1.7,6.94,6.94,0,0,1,1.06-2.77A1,1,0,0,0,93.32,97.91Z"/><path class="cls-9" d="M90,102.64a6.93,6.93,0,0,0-1.16,2.28c-1.55,2.38-.54,4.76,1.09,6.88a4.29,4.29,0,0,0,.53.51.41.41,0,1,1-.56.6,3.58,3.58,0,0,1-1.05-1c-.87-1.55-1.87-3-1.59-5a12.28,12.28,0,0,0,0-1.36c.21-.35.41-.7.61-1,.47-.68.6-1.54,1.19-2.15C89.57,101.93,89.94,101.78,90,102.64Z"/><path class="cls-11" d="M104.08,109.67l-.4.07a2.39,2.39,0,0,1-1.93-1.7,2.78,2.78,0,0,1,1-.84c.78,0,1.41-.55,2.2-.58,1.61-.07,1.71,0,1.68,1.56a4.48,4.48,0,0,0,.06.62h0A8.35,8.35,0,0,0,104.08,109.67Z"/><path class="cls-11" d="M94.72,108.47l.61.4a1.55,1.55,0,0,1-.72,1.11,9,9,0,0,0-2.37.28.14.14,0,0,1-.12-.06c0-.31-.19-.42-.49-.36a1.07,1.07,0,0,1-.6-.63,1.4,1.4,0,0,0,0-.41,1.12,1.12,0,0,1,.13-1.26c.41-.46.85-.16,1.24,0C93.15,107.8,93.93,108.15,94.72,108.47Z"/><path class="cls-9" d="M94.61,110a1.55,1.55,0,0,0,.72-1.11c.56.18.78.67,1,1.13.69,1.24,1.51,2.22,3.15,1.71.24-.08.53,0,.56.29s-.23.48-.5.6a3,3,0,0,1-3.06-.84c-.51-.52-.76-1.23-1.33-1.91-.21.87-.53,1.39-1.37,1C94.06,110.53,94.82,110.72,94.61,110Z"/><path class="cls-9" d="M93.32,97.91a1,1,0,0,1-.76.26c-.06-.23-.12-.47-.17-.7,1.19-1.58,2.49-3.1,2.51-5.24.46-.19.73-.09.78.46a3.77,3.77,0,0,1-.36,1.81A29,29,0,0,1,93.32,97.91Z"/><path class="cls-9" d="M106.71,108.8a4.48,4.48,0,0,1-.06-.62c0-1.56-.07-1.63-1.68-1.56-.79,0-1.42.58-2.2.58a4.17,4.17,0,0,1,3.4-1,1.42,1.42,0,0,1,1.27,1.22A1.08,1.08,0,0,1,106.71,108.8Z"/><path class="cls-9" d="M101.75,108a2.39,2.39,0,0,0,1.93,1.7.77.77,0,0,1-.87.17c-.59-.24-1.07-1.15-1.74,0-.1.16-.45-.33-.39-.65A1.66,1.66,0,0,1,101.75,108Z"/><path class="cls-9" d="M94.72,108.47c-.79-.32-1.57-.67-2.37-1-.39-.14-.83-.44-1.24,0A1.12,1.12,0,0,0,91,108.8a1.4,1.4,0,0,1,0,.41,1.25,1.25,0,0,1-.41-1.74c.37-.64,1-.56,1.58-.36A4.42,4.42,0,0,1,94.72,108.47Z"/><path class="cls-8" d="M94.61,110c.21.74-.55.55-.8.84a1.58,1.58,0,0,1-1.57-.56A9,9,0,0,1,94.61,110Z"/><path class="cls-9" d="M104.08,109.67a8.35,8.35,0,0,1,2.61-.86A3.28,3.28,0,0,1,104.08,109.67Z"/><path class="cls-9" d="M91.63,109.84c.3-.06.47,0,.49.36A.48.48,0,0,1,91.63,109.84Z"/><path class="cls-13" d="M92.39,97.47c0,.23.11.47.17.7a6.94,6.94,0,0,0-1.06,2.77,2.08,2.08,0,0,1-1.47,1.7c-.09-.86-.46-.71-.9-.25-.59.61-.72,1.47-1.19,2.15-.71-.49-1.44-.09-2.13,0-1.73.34-3.55.27-5.17,1.14a.75.75,0,0,1-.69-.13,11.18,11.18,0,0,0-1.93-.79c-.37-.11-.69-.19-.66-1a3.08,3.08,0,0,0-.85-2.51c-.44-.35-.36-.52.06-.73a17,17,0,0,1,1.61-.78c.75-.28,1.48-.49,1.34-1.54,0-.26.21-.45.45-.52,1.38-.4,2.34-1.45,3.49-2.21a21.09,21.09,0,0,1,2.26-1.31,1.4,1.4,0,0,0,.91-1.59c.2-.27.29-.53,0-.81l.21-.94a2,2,0,0,0,1.36-.61l.56-.14c.48,1.34.66,2.63-.39,3.83-.22.24-.48.65-.11.92s.6-.17.82-.43a4.43,4.43,0,0,0-.66-6.1,13.3,13.3,0,0,0-4.1-2c.12-.94.9-.94,1.49-.84.77.14,1-.21,1.22-.79s.46-1.31.7-2a.67.67,0,0,1,1-.47,13.22,13.22,0,0,1,1.57.55,3.7,3.7,0,0,0,3,.34c.56-.16.93.16.88.56-.08.64.29,1.38-.34,1.94-.38.35-.18.75,0,1.16a3.76,3.76,0,0,1-.72,4.41,1.4,1.4,0,0,0-.51,1A17,17,0,0,1,91.94,96,1.43,1.43,0,0,0,92.39,97.47Z"/><path class="cls-8" d="M84.33,86.37a13.3,13.3,0,0,1,4.1,2,4.43,4.43,0,0,1,.66,6.1c-.22.26-.43.7-.82.43s-.11-.68.11-.92c1.05-1.2.87-2.49.39-3.83a4.23,4.23,0,0,0-3.5-2.32c.36.54,1,.64,1.47.93a2.73,2.73,0,0,1,1.47,1.53,2,2,0,0,1-1.36.61,4.65,4.65,0,0,0-2.69.6c-2,1.21-4.38,1-6.62,1.07-.78,0-2-.43-2-1a2.94,2.94,0,0,1,1.08-2.28c.35-.24,1-.62.78-.88-.39-.43-.92.14-1.32.39-.56.36-.87,1.14-1.71,1l-.06-.45c1.72-2.19,4.15-2.7,6.74-2.85l2.19-.15ZM86.65,90c.19,0,.45.09.51-.15s-.16-.23-.33-.24c-.59-.26-1.17-1.31-1.81,0,0-1.3-.8-1.37-1.76-1.25-.27-.49-1-.22-1.25-.66.93-.49,1.88.33,2.85,0-.88-.7-5.6-.47-7,.36,1.12.33,2.07-.54,3.1-.26a.71.71,0,0,1-.14.58,3.28,3.28,0,0,0-1,.14c-.64.18-.65.52-.34,1a3,3,0,0,0,4.72.47,1.1,1.1,0,0,1,.84-.35c-.07.26-.43.52-.22.75s.55.13.86,0A5.39,5.39,0,0,1,86.65,90Zm-6.31,1.3c-.53-.59-1-1.13-1.45-1.62-.2-.2-.34-.69-.81-.4s-1,.57-1,1.12.5.51.83.65A7.82,7.82,0,0,0,80.34,91.3Z"/><path class="cls-9" d="M86.64,91.86c.28.28.19.54,0,.81l-5,1.27a4.4,4.4,0,0,1-.51,0c-.27,0-.62.08-.69-.28s.23-.47.51-.53C82.81,92.74,84.69,92.14,86.64,91.86Z"/><path class="cls-12" d="M77.4,79.54a6.76,6.76,0,0,1,3.13,0A6.26,6.26,0,0,1,77.4,79.54Z"/><path class="cls-14" d="M83,84l.18.07c0,.06,0,.15-.08.17s-.12,0-.17-.07S83,84.05,83,84Z"/><path class="cls-12" d="M74.34,89.36l.06.45C74,89.71,73.93,89.57,74.34,89.36Z"/><path class="cls-12" d="M75.41,80.28a.42.42,0,0,1,.52-.22A.37.37,0,0,1,75.41,80.28Z"/><path class="cls-12" d="M90.86,80.75a.74.74,0,0,0-.68,0,8,8,0,0,1,1-2.53c0,.77.84,1,1.14,1.6-.64.17-.41.75-.54,1.16l-.31-.13a1.55,1.55,0,0,0,0-.21c.07-.37.49-.93,0-1s-.54.54-.62,1A.74.74,0,0,0,90.86,80.75Z"/><path class="cls-12" d="M89.81,80.94c-.22.32-.44.32-.65,0A.66.66,0,0,1,89.81,80.94Z"/><path class="cls-12" d="M87.67,80.62c-.21.2-.32.08-.4-.12A.27.27,0,0,1,87.67,80.62Z"/><path class="cls-12" d="M88.72,80.83c-.17.18-.29.11-.4-.07A.25.25,0,0,1,88.72,80.83Z"/><path class="cls-8" d="M82.42,72.89c.26-.12.42,0,.55.21C82.72,73.19,82.52,73.16,82.42,72.89Z"/><path class="cls-8" d="M83.27,73.23a.5.5,0,0,1,.53.31C83.51,73.61,83.32,73.54,83.27,73.23Z"/><path class="cls-9" d="M107.23,60c.91,0,1.82,0,2.72,0,.29,0,.6.1.61.45s-.3.46-.59.45a32.62,32.62,0,0,1-5.32-.15c-.31-.06-.7-.09-.63-.52s.43-.28.7-.29h2.51Z"/><path class="cls-9" d="M91.8,81c.13-.41-.1-1,.54-1.16l.3.52a1.53,1.53,0,0,0,0,.82c.07.29.25.68-.19.77s-.58-.26-.61-.65C91.86,81.17,91.82,81.07,91.8,81Z"/><path class="cls-9" d="M90.86,80.75a.74.74,0,0,1,0-.21c.08-.42.07-1.1.62-1s.11.68,0,1a1.55,1.55,0,0,1,0,.21Z"/><path class="cls-7" d="M88.21,90.31a2.73,2.73,0,0,0-1.47-1.53c-.49-.29-1.11-.39-1.47-.93a4.23,4.23,0,0,1,3.5,2.32Z"/><path class="cls-7" d="M85,89.57a1.1,1.1,0,0,0-.84.35,3,3,0,0,1-4.72-.47c-.31-.48-.3-.82.34-1a3.28,3.28,0,0,1,1-.14c-.11.91.53,1.19,1.19,1.2a1.09,1.09,0,0,0,1.24-1.2c1-.12,1.8,0,1.76,1.25Z"/><path class="cls-5" d="M80.34,91.3a7.82,7.82,0,0,1-2.45-.25c-.33-.14-.88-.18-.83-.65s.57-.84,1-1.12.61.2.81.4C79.38,90.17,79.81,90.71,80.34,91.3Z"/><path class="cls-11" d="M83.26,88.31A1.09,1.09,0,0,1,82,89.51c-.66,0-1.3-.29-1.19-1.2a.71.71,0,0,0,.14-.58l1-.08C82.31,88.09,83,87.82,83.26,88.31Z"/><path class="cls-12" d="M82,87.65l-1,.08c-1-.28-2,.59-3.1.26,1.39-.83,6.11-1.06,7-.36C83.89,88,82.94,87.16,82,87.65Z"/><path class="cls-3" d="M85,89.57h0c.64-1.26,1.22-.21,1.81,0l-.18.39a5.39,5.39,0,0,0-1,.29c-.31.16-.65.27-.86,0S85,89.83,85,89.57Z"/><path class="cls-7" d="M86.65,90l.18-.39c.17,0,.4,0,.33.24S86.84,90,86.65,90Z"/></svg>